<?xml version="1.0" encoding="utf-8"?>
<!-- Svg Vector Icons : http://www.onlinewebfonts.com/icon -->
<!DOCTYPE svg PUBLIC "-//W3C//DTD SVG 1.1//EN" "http://www.w3.org/Graphics/SVG/1.1/DTD/svg11.dtd">
<svg version="1.1" xmlns="http://www.w3.org/2000/svg" xmlns:xlink="http://www.w3.org/1999/xlink" x="0px" y="0px" viewBox="0 0 256 256" enable-background="new 0 0 256 256" xml:space="preserve">
<metadata> Svg Vector Icons : http://www.onlinewebfonts.com/icon </metadata>
<g> <path fill="#cd4255" d="M241.3,187.2L157.7,33.7c-6.4-10.5-17.4-16.9-29.7-16.9c-12.3,0-23.4,6.4-29.7,16.9c0,0.1-0.1,0.1-0.1,0.3 L14.9,186.9c-6.4,10.9-6.5,23.9-0.3,34.8c6.2,10.9,17.4,17.4,30,17.4h166.8c12.6,0,23.8-6.5,30-17.4 C247.6,210.8,247.5,197.8,241.3,187.2z"/> <path fill="#c12b42" d="M241.4,221.8c-6.2,10.9-17.4,17.4-30,17.4H128V16.8c12.3,0,23.4,6.4,29.7,16.9l83.5,153.5 C247.5,197.8,247.6,210.8,241.4,221.8z"/> <path fill="#f5d73d" d="M229.2,194L145.7,40.5c-3.6-6.1-10.4-9.8-17.7-9.8s-14,3.7-17.8,10L26.9,193.8c-4,6.6-4,14.5-0.3,21 c3.7,6.6,10.5,10.5,18,10.5h166.8c7.5,0,14.2-3.9,18-10.5C233.1,208.3,233.1,200.5,229.2,194L229.2,194z"/> <path fill="#f6b73a" d="M229.4,214.8c-3.7,6.6-10.5,10.5-18,10.5H128V30.6c7.3,0,14.1,3.7,17.7,9.8L229.2,194 C233.1,200.5,233.1,208.3,229.4,214.8z"/> <path fill="#040000" d="M199.8,204.6H56.2c-5.2,0-8.6-5.6-6.1-10.2l21-37.9c2.4-4.5,7.1-7.3,12.2-7.3h5.2c6.2,0,11.5,3.5,13.2,8.7 c3.8,11.3,14.3,18.9,26.2,18.9s22.5-7.6,26.2-18.9c1.7-5.2,7-8.7,13.2-8.7h5.6c5.1,0,9.8,2.8,12.2,7.3l20.7,37.8 C208.4,199,205,204.6,199.8,204.6L199.8,204.6z"/> <path fill="#495976" d="M205.9,194.4l-20.6-37.8c-2.5-4.6-7.2-7.3-12.3-7.3h-5.5c-6.1,0-11.5,3.5-13.1,8.7 c-3.7,11.3-14.4,18.9-26.3,18.9s-22.5-7.6-26.3-18.9c-1.7-5.3-7.1-8.7-13.1-8.7h-5.3c-5.1,0-9.7,2.8-12.2,7.2l-21,37.9 c-2.5,4.7,0.8,10.2,6.1,10.2h143.6C205,204.6,208.4,199.1,205.9,194.4L205.9,194.4z"/> <path fill="#414f6a" d="M199.8,204.6H128V177c11.9,0,22.5-7.6,26.3-18.9c1.7-5.3,7.1-8.7,13.1-8.7h5.5c5.1,0,9.8,2.8,12.3,7.3 l20.6,37.8C208.4,199.1,205,204.6,199.8,204.6z"/> <path fill="#495976" d="M146.7,119.6l-13.8,13.8c-1.2,1.4-3,2.1-4.8,2.1c-1.8,0-3.6-0.7-4.8-2.1l-13.8-13.8c-2.8-2.6-2.8-7.1,0-9.7 c2.6-2.8,7.1-2.8,9.7,0l2.1,1.9V94c0-3.9,3-6.9,6.9-6.9c3.9,0,6.9,3,6.9,6.9v17.8l2.1-1.9c2.6-2.8,7.1-2.8,9.7,0 C149.4,112.5,149.4,116.9,146.7,119.6z"/> <path fill="#414f6a" d="M146.7,119.6l-13.8,13.8c-1.2,1.4-3,2.1-4.8,2.1V87.1c3.9,0,6.9,3,6.9,6.9v17.8l2.1-1.9 c2.6-2.8,7.1-2.8,9.7,0C149.4,112.5,149.4,116.9,146.7,119.6z"/></g>
</svg>