<svg version="1.1" id="Layer_1" xmlns="http://www.w3.org/2000/svg" xmlns:xlink="http://www.w3.org/1999/xlink" x="0px" y="0px"
	 width="100%" viewBox="0 0 626 626" enable-background="new 0 0 626 626" xml:space="preserve">
<path fill="#FFFFFF" opacity="1.000000" stroke="none" 
	d="
M421.000000,627.000000 
	C280.666687,627.000000 140.833389,627.000000 1.000056,627.000000 
	C1.000038,418.333405 1.000038,209.666794 1.000019,1.000140 
	C209.666565,1.000093 418.333130,1.000093 626.999756,1.000047 
	C626.999878,209.666519 626.999878,418.333038 626.999939,626.999756 
	C558.500000,627.000000 490.000000,627.000000 421.000000,627.000000 
M303.500000,536.712341 
	C312.663544,536.712402 321.827118,536.712891 330.990662,536.712280 
	C396.303864,536.708008 461.617218,536.777344 526.930237,536.665405 
	C556.120056,536.615417 574.771545,506.214020 560.736572,481.282257 
	C544.743652,452.872467 528.210205,424.766724 511.884094,396.544769 
	C486.318573,352.351135 460.683838,308.197479 435.163025,263.978027 
	C405.646606,212.835541 376.300079,161.594818 346.701294,110.500153 
	C339.475647,98.027008 328.229553,91.288269 313.735992,91.457352 
	C299.315735,91.625587 288.357117,98.385681 281.094788,111.001549 
	C269.147797,131.755508 257.109161,152.456696 245.147598,173.202316 
	C213.741348,227.672119 182.384399,282.170349 150.953491,336.625916 
	C123.357697,384.436920 95.711884,432.219116 68.037453,479.984680 
	C59.475140,494.763062 61.543243,512.958679 73.247635,525.191711 
	C82.260284,534.611450 93.607994,536.822510 106.060623,536.795959 
	C171.540176,536.656311 237.020157,536.719299 303.500000,536.712341 
z"/>
<path fill="#F4C718" opacity="1.000000" stroke="none" 
	d="
M303.000000,536.712158 
	C237.020157,536.719299 171.540176,536.656311 106.060623,536.795959 
	C93.607994,536.822510 82.260284,534.611450 73.247635,525.191711 
	C61.543243,512.958679 59.475140,494.763062 68.037453,479.984680 
	C95.711884,432.219116 123.357697,384.436920 150.953491,336.625916 
	C182.384399,282.170349 213.741348,227.672119 245.147598,173.202316 
	C257.109161,152.456696 269.147797,131.755508 281.094788,111.001549 
	C288.357117,98.385681 299.315735,91.625587 313.735992,91.457352 
	C328.229553,91.288269 339.475647,98.027008 346.701294,110.500153 
	C376.300079,161.594818 405.646606,212.835541 435.163025,263.978027 
	C460.683838,308.197479 486.318573,352.351135 511.884094,396.544769 
	C528.210205,424.766724 544.743652,452.872467 560.736572,481.282257 
	C574.771545,506.214020 556.120056,536.615417 526.930237,536.665405 
	C461.617218,536.777344 396.303864,536.708008 330.990662,536.712280 
	C321.827118,536.712891 312.663544,536.712402 303.000000,536.712158 
M526.784485,529.978516 
	C548.669067,527.535278 560.082275,502.813171 549.688232,483.967163 
	C547.047424,479.178986 544.377625,474.406433 541.687256,469.645905 
	C524.024719,438.392365 506.350006,407.145691 488.684814,375.893616 
	C463.648987,331.601990 438.653046,287.287750 413.569733,243.023041 
	C401.465942,221.663376 389.111237,200.445755 377.035065,179.070618 
	C364.723846,157.279480 352.891510,135.211502 340.211731,113.639603 
	C337.260742,108.619148 332.386322,103.659538 327.201782,101.317032 
	C321.819702,98.885262 314.989807,99.237991 308.789429,99.210793 
	C305.599945,99.196793 302.287231,100.736984 299.231628,102.045319 
	C291.868378,105.198067 288.480621,112.028915 284.821686,118.485855 
	C268.673553,146.982498 252.592651,175.517197 236.479187,204.033493 
	C212.746429,246.033859 189.005600,288.029694 165.270416,330.028687 
	C153.348297,351.124634 141.429459,372.222443 129.511887,393.321014 
	C112.472855,423.486420 95.363792,453.612579 78.424065,483.833679 
	C66.954124,504.296509 81.213814,528.792908 102.965149,530.020447 
	C104.296135,530.051453 105.627113,530.109619 106.958099,530.109619 
	C244.312927,530.112183 381.667755,530.111572 519.022583,530.097473 
	C521.347168,530.097229 523.671814,529.928711 526.784485,529.978516 
z"/>
<path fill="#373737" opacity="1.000000" stroke="none" 
	d="
M102.046539,529.839355 
	C81.213814,528.792908 66.954124,504.296509 78.424065,483.833679 
	C95.363792,453.612579 112.472855,423.486420 129.511887,393.321014 
	C141.429459,372.222443 153.348297,351.124634 165.270416,330.028687 
	C189.005600,288.029694 212.746429,246.033859 236.479187,204.033493 
	C252.592651,175.517197 268.673553,146.982498 284.821686,118.485855 
	C288.480621,112.028915 291.868378,105.198067 299.231628,102.045319 
	C302.287231,100.736984 305.599945,99.196793 308.789429,99.210793 
	C314.989807,99.237991 321.819702,98.885262 327.201782,101.317032 
	C332.386322,103.659538 337.260742,108.619148 340.211731,113.639603 
	C352.891510,135.211502 364.723846,157.279480 377.035065,179.070618 
	C389.111237,200.445755 401.465942,221.663376 413.569733,243.023041 
	C438.653046,287.287750 463.648987,331.601990 488.684814,375.893616 
	C506.350006,407.145691 524.024719,438.392365 541.687256,469.645905 
	C544.377625,474.406433 547.047424,479.178986 549.688232,483.967163 
	C560.082275,502.813171 548.669067,527.535278 526.392456,529.689270 
	C526.000488,529.400024 525.993591,528.961182 526.219971,528.700684 
	C528.200012,527.734253 529.953796,527.028320 531.602905,526.364441 
	C527.251221,520.102478 521.647644,518.819885 514.530334,518.831970 
	C380.395538,519.060181 246.260254,519.000122 112.125053,518.999084 
	C110.458847,518.999084 108.789291,518.916443 107.127335,518.996887 
	C105.354172,519.082642 103.588173,519.316528 101.819054,519.485718 
	C102.113380,521.492798 102.309441,523.520325 102.723152,525.502441 
	C103.506294,529.254395 106.590706,527.952332 108.820824,527.953186 
	C245.122162,528.004150 381.423492,527.995483 517.724854,528.037292 
	C519.802979,528.037903 521.880920,528.598022 523.493958,528.929077 
	C384.787201,528.970520 246.545471,528.976257 108.303741,529.024780 
	C106.217918,529.025513 104.132271,529.556030 102.046539,529.839355 
M104.606956,516.617859 
	C106.586266,516.745239 108.565559,516.983826 110.544884,516.984131 
	C224.342300,517.001953 338.139709,517.000000 451.937134,517.000000 
	C474.596649,517.000000 497.256317,517.037354 519.915283,516.924194 
	C521.607605,516.915710 523.294617,515.829407 525.627625,515.156555 
	C525.920044,515.310547 526.309387,515.673096 526.491150,515.588745 
	C538.356506,510.078125 542.078918,500.250854 535.795532,489.411438 
	C523.002075,467.341522 510.601624,445.043701 498.054108,422.831360 
	C459.636627,354.822388 421.233246,286.805420 382.809906,218.799744 
	C364.559784,186.498734 346.303802,154.200974 327.994751,121.933357 
	C321.212067,109.979683 307.277252,109.719383 300.326202,121.365028 
	C294.368408,131.346680 288.316345,141.278336 282.623627,151.410553 
	C273.833038,167.056503 265.389099,182.896835 256.656830,198.576019 
	C248.669785,212.917084 240.476395,227.143112 232.407990,241.439041 
	C221.211334,261.277649 210.064270,281.144257 198.863480,300.980499 
	C185.421570,324.785675 171.945602,348.571625 158.484100,372.365784 
	C144.155197,397.693085 129.851181,423.034546 115.484787,448.340576 
	C109.538025,458.815613 103.391403,469.177429 97.467880,479.665436 
	C94.855370,484.291046 92.217087,488.957764 90.215729,493.861023 
	C86.418922,503.163177 93.575211,514.805237 103.227409,515.533325 
	C103.449318,515.762756 103.710938,515.930115 104.606956,516.617859 
z"/>
<path fill="#160D00" opacity="1.000000" stroke="none" 
	d="
M102.505844,529.929871 
	C104.132271,529.556030 106.217918,529.025513 108.303741,529.024780 
	C246.545471,528.976257 384.787201,528.970520 523.832886,528.963135 
	C525.089050,528.963928 525.541321,528.962585 525.993591,528.961182 
	C525.993591,528.961182 526.000488,529.400024 525.998413,529.619385 
	C523.671814,529.928711 521.347168,530.097229 519.022583,530.097473 
	C381.667755,530.111572 244.312927,530.112183 106.958099,530.109619 
	C105.627113,530.109619 104.296135,530.051453 102.505844,529.929871 
z"/>
<path fill="#F9C804" opacity="1.000000" stroke="none" 
	d="
M102.978119,515.136414 
	C93.575211,514.805237 86.418922,503.163177 90.215729,493.861023 
	C92.217087,488.957764 94.855370,484.291046 97.467880,479.665436 
	C103.391403,469.177429 109.538025,458.815613 115.484787,448.340576 
	C129.851181,423.034546 144.155197,397.693085 158.484100,372.365784 
	C171.945602,348.571625 185.421570,324.785675 198.863480,300.980499 
	C210.064270,281.144257 221.211334,261.277649 232.407990,241.439041 
	C240.476395,227.143112 248.669785,212.917084 256.656830,198.576019 
	C265.389099,182.896835 273.833038,167.056503 282.623627,151.410553 
	C288.316345,141.278336 294.368408,131.346680 300.326202,121.365028 
	C307.277252,109.719383 321.212067,109.979683 327.994751,121.933357 
	C346.303802,154.200974 364.559784,186.498734 382.809906,218.799744 
	C421.233246,286.805420 459.636627,354.822388 498.054108,422.831360 
	C510.601624,445.043701 523.002075,467.341522 535.795532,489.411438 
	C542.078918,500.250854 538.356506,510.078125 526.491150,515.588745 
	C526.309387,515.673096 525.920044,515.310547 524.880981,515.146606 
	C522.423645,515.175293 520.713013,515.213989 518.545898,515.140320 
	C517.423828,515.008057 516.758240,514.970886 516.092651,514.970886 
	C381.217102,514.968262 246.341568,514.967407 111.466019,514.980408 
	C109.977272,514.980530 108.488533,515.163391 106.635300,515.211243 
	C105.536964,515.190491 104.803131,515.219360 103.803619,515.150757 
	C103.351326,515.081055 103.164719,515.108765 102.978119,515.136414 
M220.761475,384.547882 
	C220.442032,384.422119 220.122589,384.296326 219.929184,384.105865 
	C219.929184,384.105865 219.851517,384.224365 219.671204,383.513947 
	C214.163483,378.900024 207.953857,379.468018 201.557327,380.940643 
	C200.018967,381.294800 197.802628,383.702698 197.000061,379.995636 
	C197.000061,379.995636 197.015503,379.997833 197.614807,379.983093 
	C198.074738,379.648193 198.534668,379.313263 198.996460,379.003296 
	C198.996460,379.003296 198.977097,378.985931 199.834900,379.033447 
	C205.909424,379.005524 211.983932,378.977570 218.008331,378.999207 
	C218.008331,378.999207 218.025513,378.930817 218.330582,379.462372 
	C218.898987,379.627869 219.467407,379.793365 220.000000,380.000000 
	C220.000000,380.000000 220.032394,379.955811 220.276581,380.479462 
	C220.800232,380.679688 221.323883,380.879913 222.329010,381.230652 
	C222.556305,381.467407 222.783600,381.704193 223.227890,382.454620 
	C223.552094,382.614105 223.876297,382.773590 224.781586,383.256012 
	C232.584152,390.716125 233.221817,399.965637 230.733871,409.598694 
	C229.728287,413.492096 231.173325,414.473999 234.273300,415.451752 
	C241.674835,417.786163 248.997696,420.368958 256.365631,422.811340 
	C264.329529,425.451294 272.308563,428.045746 280.477814,430.724579 
	C282.536285,418.964722 288.647339,411.236786 300.146088,409.038757 
	C309.552551,407.240662 317.685455,410.360168 323.761230,417.778290 
	C329.628662,424.942078 330.622467,433.012085 327.246307,441.714478 
	C326.728851,443.048340 326.830627,445.652130 327.693817,446.325653 
	C333.532684,450.881439 343.799896,448.204773 347.658447,441.565979 
	C348.877838,439.467987 350.386017,437.418884 352.164581,435.785797 
	C359.175079,429.348419 363.633942,421.343079 360.537384,412.205719 
	C357.427887,403.030182 349.262848,397.795654 340.040192,394.967224 
	C336.455475,393.867828 334.135071,392.264923 333.154297,388.390808 
	C330.843903,379.264557 328.236725,370.210571 325.603363,361.169922 
	C323.496887,353.938232 318.733215,349.180511 311.566864,346.797760 
	C305.833160,344.891388 300.129822,342.893829 294.406403,340.956329 
	C288.672699,339.015320 283.001038,336.846771 277.178131,335.222748 
	C264.188324,331.599731 252.131027,324.412659 237.890823,324.307770 
	C235.277725,325.240723 232.664627,326.173676 230.022308,327.020630 
	C230.022308,327.020630 230.098892,327.069458 229.600464,327.150574 
	C229.383987,327.397583 229.167511,327.644592 228.967209,327.976135 
	C228.967209,327.976135 228.892853,327.932770 228.297379,327.995667 
	C227.890350,328.381500 227.483337,328.767303 227.043594,329.043823 
	C227.043594,329.043823 227.130402,329.117828 226.490372,329.080811 
	C225.962479,329.650085 225.434601,330.219391 224.885040,330.912567 
	C224.885040,330.912567 224.761490,330.889069 224.194138,330.960083 
	C223.808304,331.334564 223.422485,331.709045 223.007904,332.008148 
	C223.007904,332.008148 223.072998,332.055786 222.435242,332.049896 
	C222.016724,332.451935 221.598190,332.854004 221.051361,333.142639 
	C221.051361,333.142639 221.212326,333.201111 220.663025,333.279419 
	C220.475815,333.580597 220.288589,333.881775 219.836700,334.590912 
	C219.579971,334.805817 219.285248,334.931946 218.247635,334.961090 
	C217.506287,335.650391 216.764938,336.339691 215.999176,337.001221 
	C215.999176,337.001221 216.028152,337.022491 215.551910,337.118774 
	C215.244614,337.274109 215.040421,337.516357 214.933594,337.942413 
	C214.933594,337.942413 214.840439,337.915192 214.259888,337.991730 
	C213.863907,338.375427 213.467926,338.759155 213.043106,339.050842 
	C213.043106,339.050842 213.130249,339.092194 212.621857,339.187775 
	C212.407898,339.446747 212.193954,339.705688 211.996994,340.002502 
	C211.996994,340.002502 211.965775,339.974121 211.260895,339.978088 
	C210.513519,340.661621 209.766144,341.345184 209.000580,341.998779 
	C209.000580,341.998779 209.028366,342.020813 208.305450,342.000610 
	C206.584625,343.406036 204.863800,344.811462 203.076355,346.104797 
	C203.076355,346.104797 203.194458,346.160065 202.663177,346.225311 
	C202.446014,346.494049 202.228836,346.762787 202.001678,346.996338 
	C202.001678,346.996338 202.032745,347.015930 201.559631,347.117645 
	C201.254639,347.271820 201.048508,347.511169 200.925827,347.944672 
	C200.925827,347.944672 200.819427,347.916412 200.147812,347.955658 
	C199.424896,348.618164 198.701965,349.280670 197.982788,350.006866 
	C197.982788,350.006866 197.923676,349.982910 197.481964,350.169128 
	C197.202133,350.363464 197.038300,350.629333 197.006393,350.996490 
	C197.006393,350.996490 196.973267,350.990906 196.272568,351.026917 
	C195.183624,352.041565 194.094681,353.056213 192.910751,354.491486 
	C192.910751,354.491486 192.797867,354.907684 192.178833,355.056671 
	C191.804672,355.728851 191.430511,356.401031 191.006088,357.016022 
	C191.006088,357.016022 191.081528,357.026245 190.474960,357.406921 
	C189.830261,358.909119 189.173233,360.406128 188.542953,361.914337 
	C185.585114,368.992432 185.552414,377.719360 177.317810,381.830902 
	C177.238449,381.870544 177.275574,382.143433 177.085739,382.086792 
	C177.085739,382.086792 177.295105,382.272888 176.725311,382.326752 
	C176.617203,382.660980 176.509094,382.995239 176.023804,383.287781 
	C176.023804,383.287781 176.398865,383.354523 175.595993,383.418610 
	C173.299728,387.043854 172.554855,390.595062 176.004135,393.991241 
	C176.004135,393.991241 176.081100,393.917969 176.063400,394.560852 
	C176.494980,394.916840 176.926559,395.272827 177.187576,395.694580 
	C177.187576,395.694580 177.370392,395.692963 177.385742,396.287018 
	C177.722443,396.446899 178.059158,396.606750 178.760193,396.913727 
	C178.760193,396.913727 179.048599,397.180573 179.375961,397.767944 
	C184.336365,400.946198 184.336365,400.946198 187.134888,394.436523 
	C187.753693,394.985474 188.319763,395.487671 188.909866,396.687805 
	C188.791992,397.137115 188.674103,397.586426 188.038437,398.470947 
	C188.343002,400.983917 188.647552,403.496887 189.121902,406.351624 
	C189.121902,406.351624 189.109558,406.733093 189.027283,407.400024 
	C189.355591,407.931793 189.683914,408.463531 190.220810,409.222809 
	C190.220810,409.222809 190.244690,409.530518 190.232895,410.133179 
	C190.491409,410.422852 190.749939,410.712555 190.998169,411.000000 
	C190.998169,411.000000 191.001541,410.989197 191.017227,411.631561 
	C191.436401,412.045624 191.855576,412.459717 192.649948,413.114410 
	C192.852051,413.343292 192.981018,413.607849 193.200119,414.422424 
	C193.497620,414.606750 193.795105,414.791077 194.518799,415.146698 
	C194.785294,415.328857 194.954346,415.577271 195.239792,416.435211 
	C195.581390,416.595245 195.922989,416.755280 196.768341,417.060608 
	C197.171402,417.381897 197.574478,417.703186 198.027298,418.597504 
	C198.680466,418.763916 199.333633,418.930328 200.552734,419.149475 
	C201.063065,419.375702 201.573410,419.601929 202.366013,420.570068 
	C207.631866,423.372101 215.770859,422.060303 218.997147,417.983856 
	C218.997147,417.983856 218.908325,417.926300 219.599304,417.937561 
	C220.347107,417.196991 221.094910,416.456421 222.176941,415.187866 
	C223.371246,413.750122 224.565567,412.312408 226.367279,410.654388 
	C226.536636,410.062378 226.705994,409.470337 226.953781,408.956329 
	C226.953781,408.956329 226.844818,408.937286 227.512527,408.538422 
	C227.539627,404.042603 227.566727,399.546814 227.482956,394.842834 
	C227.482956,394.842834 227.562607,394.620850 227.684158,393.992615 
	C227.438660,393.666687 227.193161,393.340790 227.004272,393.012390 
	C227.004272,393.012390 226.963531,393.051819 226.997574,392.427917 
	C226.648804,391.958984 226.300034,391.490051 226.002258,391.003937 
	C226.002258,391.003937 225.966858,391.044586 225.961777,390.418060 
	C225.581909,389.978485 225.202057,389.538910 224.925049,389.053589 
	C224.925049,389.053589 224.874359,389.154114 224.782959,388.635315 
	C224.510605,388.430847 224.238235,388.226379 224.000763,388.000580 
	C224.000763,388.000580 223.973663,388.031738 223.928986,387.383270 
	C223.295044,386.913940 222.661102,386.444641 222.000000,386.000000 
	C222.000000,386.000000 222.021271,385.970032 221.819733,385.508240 
	C221.535995,385.343903 221.252274,385.179596 220.999847,384.997772 
	C220.999847,384.997772 220.986771,385.030975 220.761475,384.547882 
M378.998230,477.130463 
	C392.184998,477.566589 405.159149,476.067017 418.033936,473.215332 
	C428.191345,470.965515 438.535034,469.500702 448.610565,466.953705 
	C458.120667,464.549622 467.130493,460.591614 474.632690,454.015137 
	C480.315613,449.033569 480.822723,442.947571 476.670288,436.880035 
	C472.107910,430.213470 465.388611,427.032166 457.990570,424.726532 
	C453.243896,423.247253 448.702179,421.013000 443.890259,419.863464 
	C436.933563,418.201508 429.815308,417.215729 422.476776,415.344299 
	C412.673584,413.907318 402.870361,412.470367 392.319061,410.866425 
	C383.683533,410.866425 375.048035,410.866425 366.518280,410.866425 
	C367.487640,419.725922 364.535156,429.009155 358.409546,435.838226 
	C355.772308,438.778351 353.289062,441.871765 350.917969,445.032166 
	C346.227386,451.284241 336.264862,455.596039 331.180786,452.686554 
	C325.569031,449.475037 320.990509,451.034393 316.559540,454.430878 
	C311.485199,458.320465 305.646729,458.766022 300.129028,457.051117 
	C290.881775,454.177094 284.100922,448.205444 281.043732,438.511597 
	C280.535675,436.900543 278.650818,435.188385 277.008636,434.572968 
	C272.499603,432.883057 267.524048,432.303864 263.197388,430.288391 
	C253.150833,425.608154 242.981522,428.584900 237.825089,438.316895 
	C235.653793,442.414886 236.261154,449.602509 239.755920,452.186401 
	C245.148590,456.173615 250.606110,460.534668 256.739685,462.952026 
	C266.389221,466.755096 276.456390,470.049622 286.648895,471.797089 
	C302.660309,474.542236 318.923065,475.821045 335.995209,477.901459 
	C348.840820,477.986053 361.686432,478.096802 374.532135,478.111420 
	C375.711090,478.112793 376.890808,477.500214 378.998230,477.130463 
M354.263947,319.051270 
	C354.427643,320.205383 354.198425,321.678894 354.828461,322.453979 
	C356.745422,324.812347 358.635986,327.991394 361.199463,328.833221 
	C364.826019,330.024139 367.371857,327.199341 368.231781,323.494904 
	C368.642578,321.725098 368.851074,319.884399 368.928955,318.066284 
	C369.087280,314.370514 368.844116,310.643372 369.209412,306.973267 
	C370.488342,294.123291 371.978210,281.294403 373.328857,268.451294 
	C373.548981,266.357910 373.114441,264.148346 373.593781,262.138245 
	C375.236145,255.250656 370.896942,247.982452 364.369537,247.087753 
	C356.536377,246.014053 349.968292,250.395157 349.109253,257.483002 
	C348.832184,259.769257 349.064697,262.143158 349.272583,264.458221 
	C350.880646,282.366211 352.539856,300.269562 354.263947,319.051270 
M291.164734,447.350616 
	C291.662170,447.793030 292.124451,448.284363 292.662323,448.670502 
	C301.323303,454.887970 311.352966,454.450775 319.323792,446.566650 
	C326.672302,439.298096 326.853882,427.286163 319.886200,419.815765 
	C311.972168,411.330811 302.581543,410.826599 293.033752,417.011230 
	C283.189026,423.388153 282.341278,436.859161 291.164734,447.350616 
M356.924896,336.098694 
	C356.033875,336.537811 355.086243,336.890320 354.260986,337.430023 
	C348.782501,341.012878 346.428375,348.386139 348.919861,354.026154 
	C351.697052,360.312775 358.016632,363.369324 364.637695,362.223297 
	C369.760742,361.336548 375.774902,353.762695 375.211761,347.893066 
	C374.387970,339.306702 367.025360,334.038391 356.924896,336.098694 
z"/>
<path fill="#38353D" opacity="1.000000" stroke="none" 
	d="
M526.219971,528.700684 
	C525.541321,528.962585 525.089050,528.963928 524.297852,528.931213 
	C521.880920,528.598022 519.802979,528.037903 517.724854,528.037292 
	C381.423492,527.995483 245.122162,528.004150 108.820824,527.953186 
	C106.590706,527.952332 103.506294,529.254395 102.723152,525.502441 
	C102.309441,523.520325 102.113380,521.492798 101.819054,519.485718 
	C103.588173,519.316528 105.354172,519.082642 107.127335,518.996887 
	C108.789291,518.916443 110.458847,518.999084 112.125053,518.999084 
	C246.260254,519.000122 380.395538,519.060181 514.530334,518.831970 
	C521.647644,518.819885 527.251221,520.102478 531.602905,526.364441 
	C529.953796,527.028320 528.200012,527.734253 526.219971,528.700684 
z"/>
<path fill="#2D2D34" opacity="1.000000" stroke="none" 
	d="
M519.002319,515.252686 
	C520.713013,515.213989 522.423645,515.175293 524.559204,515.190369 
	C523.294617,515.829407 521.607605,516.915710 519.915283,516.924194 
	C497.256317,517.037354 474.596649,517.000000 451.937134,517.000000 
	C338.139709,517.000000 224.342300,517.001953 110.544884,516.984131 
	C108.565559,516.983826 106.586266,516.745239 104.335808,516.130554 
	C104.064659,515.643250 104.069290,515.248230 104.069290,515.248230 
	C104.803131,515.219360 105.536964,515.190491 106.966629,515.453857 
	C108.984818,515.830750 110.307175,515.989380 111.629555,515.989502 
	C245.818771,516.000732 380.007996,516.002625 514.197205,515.968994 
	C515.798950,515.968628 517.400635,515.501770 519.002319,515.252686 
z"/>
<path fill="#605321" opacity="1.000000" stroke="none" 
	d="
M103.803619,515.150757 
	C104.069290,515.248230 104.064659,515.643250 104.038467,515.839355 
	C103.710938,515.930115 103.449318,515.762756 103.102768,515.334839 
	C103.164719,515.108765 103.351326,515.081055 103.803619,515.150757 
z"/>
<path fill="#37373A" opacity="1.000000" stroke="none" 
	d="
M335.079407,477.720825 
	C318.923065,475.821045 302.660309,474.542236 286.648895,471.797089 
	C276.456390,470.049622 266.389221,466.755096 256.739685,462.952026 
	C250.606110,460.534668 245.148590,456.173615 239.755920,452.186401 
	C236.261154,449.602509 235.653793,442.414886 237.825089,438.316895 
	C242.981522,428.584900 253.150833,425.608154 263.197388,430.288391 
	C267.524048,432.303864 272.499603,432.883057 277.008636,434.572968 
	C278.650818,435.188385 280.535675,436.900543 281.043732,438.511597 
	C284.100922,448.205444 290.881775,454.177094 300.129028,457.051117 
	C305.646729,458.766022 311.485199,458.320465 316.559540,454.430878 
	C320.990509,451.034393 325.569031,449.475037 331.180786,452.686554 
	C336.264862,455.596039 346.227386,451.284241 350.917969,445.032166 
	C353.289062,441.871765 355.772308,438.778351 358.409546,435.838226 
	C364.535156,429.009155 367.487640,419.725922 366.518280,410.866425 
	C375.048035,410.866425 383.683533,410.866425 392.939667,411.233765 
	C403.295502,413.047852 413.030762,414.494659 422.765991,415.941467 
	C429.815308,417.215729 436.933563,418.201508 443.890259,419.863464 
	C448.702179,421.013000 453.243896,423.247253 457.990570,424.726532 
	C465.388611,427.032166 472.107910,430.213470 476.670288,436.880035 
	C480.822723,442.947571 480.315613,449.033569 474.632690,454.015137 
	C467.130493,460.591614 458.120667,464.549622 448.610565,466.953705 
	C438.535034,469.500702 428.191345,470.965515 418.033936,473.215332 
	C405.159149,476.067017 392.184998,477.566589 378.067810,477.086212 
	C367.039337,477.029449 356.940735,476.950317 346.843597,477.037842 
	C342.920502,477.071838 339.000702,477.482025 335.079407,477.720825 
z"/>
<path fill="#373839" opacity="1.000000" stroke="none" 
	d="
M192.797852,354.907654 
	C192.797867,354.907684 192.910751,354.491486 193.287048,354.214447 
	C194.766647,352.955261 195.869965,351.973083 196.973267,350.990906 
	C196.973267,350.990906 197.006393,350.996490 197.210297,350.878235 
	C197.672470,350.558960 197.842300,350.299927 197.923676,349.982910 
	C197.923676,349.982910 197.982788,350.006866 198.274109,349.908936 
	C199.316757,349.179443 200.068085,348.547943 200.819427,347.916412 
	C200.819427,347.916412 200.925827,347.944672 201.175232,347.845215 
	C201.756805,347.610321 201.959503,347.367065 202.032745,347.015930 
	C202.032745,347.015930 202.001678,346.996338 202.266739,346.966614 
	C202.752686,346.677948 202.973572,346.419006 203.194458,346.160065 
	C203.194458,346.160065 203.076355,346.104797 203.445419,346.073792 
	C205.552444,344.702148 207.290405,343.361481 209.028366,342.020813 
	C209.028366,342.020813 209.000580,341.998779 209.314148,341.957489 
	C210.407089,341.268829 211.186432,340.621490 211.965775,339.974121 
	C211.965775,339.974121 211.996994,340.002502 212.243637,339.933746 
	C212.703613,339.607391 212.916931,339.349792 213.130249,339.092194 
	C213.130249,339.092194 213.043106,339.050842 213.339935,339.050049 
	C214.037994,338.671234 214.439224,338.293213 214.840439,337.915192 
	C214.840439,337.915192 214.933594,337.942413 215.179443,337.851685 
	C215.756165,337.620850 215.957108,337.374695 216.028152,337.022491 
	C216.028152,337.022491 215.999176,337.001221 216.319336,336.977417 
	C217.410507,336.292145 218.181519,335.630707 218.952530,334.969269 
	C219.285248,334.931946 219.579971,334.805817 220.221741,334.308685 
	C220.808640,333.751343 221.010483,333.476227 221.212326,333.201111 
	C221.212326,333.201111 221.051361,333.142639 221.407257,333.154816 
	C222.199768,332.796570 222.636383,332.426178 223.072998,332.055786 
	C223.072998,332.055786 223.007904,332.008148 223.297302,332.002045 
	C223.978287,331.626984 224.369888,331.258026 224.761475,330.889069 
	C224.761490,330.889069 224.885040,330.912567 225.177338,330.786194 
	C226.023224,330.145813 226.576813,329.631836 227.130402,329.117859 
	C227.130402,329.117828 227.043594,329.043823 227.347397,329.053833 
	C228.065094,328.686798 228.478973,328.309784 228.892853,327.932770 
	C228.892853,327.932770 228.967209,327.976135 229.209808,327.886536 
	C229.667892,327.554443 229.883392,327.311951 230.098892,327.069458 
	C230.098892,327.069458 230.022308,327.020630 230.409027,327.010223 
	C233.217850,326.294830 235.639954,325.589844 238.062057,324.884827 
	C252.131027,324.412659 264.188324,331.599731 277.178131,335.222748 
	C283.001038,336.846771 288.672699,339.015320 294.406403,340.956329 
	C300.129822,342.893829 305.833160,344.891388 311.566864,346.797760 
	C318.733215,349.180511 323.496887,353.938232 325.603363,361.169922 
	C328.236725,370.210571 330.843903,379.264557 333.154297,388.390808 
	C334.135071,392.264923 336.455475,393.867828 340.040192,394.967224 
	C349.262848,397.795654 357.427887,403.030182 360.537384,412.205719 
	C363.633942,421.343079 359.175079,429.348419 352.164581,435.785797 
	C350.386017,437.418884 348.877838,439.467987 347.658447,441.565979 
	C343.799896,448.204773 333.532684,450.881439 327.693817,446.325653 
	C326.830627,445.652130 326.728851,443.048340 327.246307,441.714478 
	C330.622467,433.012085 329.628662,424.942078 323.761230,417.778290 
	C317.685455,410.360168 309.552551,407.240662 300.146088,409.038757 
	C288.647339,411.236786 282.536285,418.964722 280.477814,430.724579 
	C272.308563,428.045746 264.329529,425.451294 256.365631,422.811340 
	C248.997696,420.368958 241.674835,417.786163 234.273300,415.451752 
	C231.173325,414.473999 229.728287,413.492096 230.733871,409.598694 
	C233.221817,399.965637 232.584152,390.716125 224.373428,382.846130 
	C223.647141,382.271149 223.329010,382.106079 223.010880,381.940979 
	C222.783600,381.704193 222.556305,381.467407 221.949448,380.907867 
	C221.057388,380.375336 220.544891,380.165558 220.032394,379.955811 
	C220.032394,379.955811 220.000000,380.000000 219.853302,379.730865 
	C219.146255,379.284760 218.585876,379.107788 218.025513,378.930817 
	C218.025513,378.930817 218.008331,378.999207 217.788605,378.699402 
	C211.288406,375.956604 205.070236,375.489136 198.977097,378.985931 
	C198.977097,378.985931 198.996460,379.003296 198.698822,378.998901 
	C197.939285,379.328918 197.477386,379.663391 197.015503,379.997833 
	C197.015503,379.997833 197.000061,379.995636 196.662704,380.059143 
	C189.212097,384.095551 186.547363,391.274780 183.918488,398.203796 
	C181.933365,397.786713 180.490982,397.483643 179.048599,397.180603 
	C179.048599,397.180573 178.760193,396.913727 178.481018,396.596313 
	C177.924683,396.083588 177.647537,395.888275 177.370392,395.692963 
	C177.370392,395.692963 177.187576,395.694580 177.191238,395.398254 
	C176.823624,394.707275 176.452362,394.312622 176.081100,393.917969 
	C176.081100,393.917969 176.004135,393.991241 175.979568,393.577332 
	C176.102951,389.893799 176.250900,386.624146 176.398865,383.354523 
	C176.398865,383.354523 176.023804,383.287781 176.426620,383.196167 
	C177.099121,382.891449 177.254349,382.614227 177.295105,382.272888 
	C177.295105,382.272888 177.085739,382.086792 177.521576,382.078979 
	C180.262741,380.678955 183.843719,379.796356 184.640640,377.801514 
	C187.321899,371.089874 189.012146,363.982330 191.081528,357.026245 
	C191.081528,357.026245 191.006088,357.016022 191.291748,356.895172 
	C191.984222,356.152100 192.391037,355.529877 192.797852,354.907654 
M284.257050,348.262878 
	C276.749664,345.758423 269.242310,343.253937 261.363739,340.625641 
	C258.341766,349.366302 255.494125,357.602661 252.444565,366.423126 
	C276.143158,374.072845 299.211945,381.519287 323.193665,389.260406 
	C320.657562,380.390594 318.488281,372.924835 316.394562,365.437958 
	C315.026611,360.546417 312.011139,357.487122 307.106628,355.951660 
	C299.691956,353.630432 292.371857,351.007172 284.257050,348.262878 
M219.881866,356.078735 
	C227.448792,358.309265 235.015732,360.539795 243.086945,362.918945 
	C246.010071,354.277679 248.824936,345.956421 251.687546,337.494019 
	C246.211044,335.300232 241.179916,332.503479 236.023346,335.865875 
	C228.008179,341.092224 220.312561,346.808594 211.401291,353.077179 
	C214.794983,354.207367 217.077393,354.967468 219.881866,356.078735 
z"/>
<path fill="#38393B" opacity="1.000000" stroke="none" 
	d="
M354.223572,318.612823 
	C352.539856,300.269562 350.880646,282.366211 349.272583,264.458221 
	C349.064697,262.143158 348.832184,259.769257 349.109253,257.483002 
	C349.968292,250.395157 356.536377,246.014053 364.369537,247.087753 
	C370.896942,247.982452 375.236145,255.250656 373.593781,262.138245 
	C373.114441,264.148346 373.548981,266.357910 373.328857,268.451294 
	C371.978210,281.294403 370.488342,294.123291 369.209412,306.973267 
	C368.844116,310.643372 369.087280,314.370514 368.928955,318.066284 
	C368.851074,319.884399 368.642578,321.725098 368.231781,323.494904 
	C367.371857,327.199341 364.826019,330.024139 361.199463,328.833221 
	C358.635986,327.991394 356.745422,324.812347 354.828461,322.453979 
	C354.198425,321.678894 354.427643,320.205383 354.223572,318.612823 
z"/>
<path fill="#393A35" opacity="1.000000" stroke="none" 
	d="
M290.907898,447.094238 
	C282.341278,436.859161 283.189026,423.388153 293.033752,417.011230 
	C302.581543,410.826599 311.972168,411.330811 319.886200,419.815765 
	C326.853882,427.286163 326.672302,439.298096 319.323792,446.566650 
	C311.352966,454.450775 301.323303,454.887970 292.662323,448.670502 
	C292.124451,448.284363 291.662170,447.793030 290.907898,447.094238 
M293.077332,432.584900 
	C293.871613,441.261810 301.018402,446.761108 308.279907,444.283020 
	C313.907074,442.362671 317.637238,436.593506 316.756866,431.172333 
	C315.872864,425.728882 310.842346,421.281921 305.359589,421.097260 
	C299.155975,420.888306 294.805450,424.683624 293.077332,432.584900 
z"/>
<path fill="#383836" opacity="1.000000" stroke="none" 
	d="
M190.244690,409.530518 
	C190.244690,409.530518 190.220810,409.222809 190.102875,408.794800 
	C189.693161,407.822205 189.401352,407.277649 189.109558,406.733093 
	C189.109558,406.733093 189.121902,406.351624 189.066788,405.735443 
	C188.859848,402.758087 188.708023,400.396912 188.556213,398.035736 
	C188.674103,397.586426 188.791992,397.137115 189.061401,396.023193 
	C192.474564,386.766083 197.866180,381.010040 207.876434,382.022186 
	C211.901199,382.429138 215.861740,383.471283 219.851517,384.224365 
	C219.851517,384.224365 219.929184,384.105865 219.985901,384.369354 
	C220.357346,384.765564 220.672058,384.898254 220.986771,385.030975 
	C220.986771,385.030975 220.999847,384.997772 221.074921,385.243439 
	C221.440414,385.649414 221.730850,385.809723 222.021271,385.970032 
	C222.021271,385.970032 222.000000,386.000000 222.117828,386.260437 
	C222.814987,387.024475 223.394333,387.528107 223.973663,388.031738 
	C223.973663,388.031738 224.000763,388.000580 224.046143,388.264221 
	C224.352478,388.736603 224.613419,388.945374 224.874359,389.154114 
	C224.874359,389.154114 224.925049,389.053589 224.913803,389.370483 
	C225.257324,390.139771 225.612091,390.592163 225.966858,391.044586 
	C225.966858,391.044586 226.002258,391.003937 226.015228,391.304504 
	C226.339981,392.087311 226.651749,392.569580 226.963531,393.051819 
	C226.963531,393.051819 227.004272,393.012390 226.982330,393.313354 
	C227.161133,393.949829 227.361877,394.285339 227.562607,394.620850 
	C227.562607,394.620850 227.482956,394.842834 227.570862,395.399658 
	C227.387451,400.283417 227.116135,404.610352 226.844818,408.937286 
	C226.844818,408.937286 226.953781,408.956329 226.669708,409.086670 
	C226.177048,409.769562 225.968460,410.322144 225.759888,410.874695 
	C224.565567,412.312408 223.371246,413.750122 221.716507,415.556671 
	C220.473495,416.592438 219.690918,417.259369 218.908325,417.926300 
	C218.908325,417.926300 218.997147,417.983856 218.579071,418.024353 
	C212.801910,418.652618 207.442825,419.240417 202.083740,419.828186 
	C201.573410,419.601929 201.063065,419.375702 200.083710,418.891754 
	C199.068985,418.430847 198.523270,418.227661 197.977554,418.024475 
	C197.574478,417.703186 197.171402,417.381897 196.383255,416.740173 
	C195.674103,416.243805 195.350037,416.067902 195.025970,415.891998 
	C194.954346,415.577271 194.785294,415.328857 194.211380,414.812805 
	C193.614929,414.288605 193.325897,414.098328 193.036850,413.908081 
	C192.981018,413.607849 192.852051,413.343292 192.380264,412.712463 
	C191.740906,411.870087 191.371231,411.429626 191.001556,410.989197 
	C191.001541,410.989197 190.998169,411.000000 190.969421,410.713562 
	C190.708664,410.128265 190.476669,409.829407 190.244690,409.530518 
M219.979584,403.007202 
	C220.428787,395.499878 216.378525,389.590057 210.444427,389.094238 
	C203.337631,388.500488 198.098785,392.100616 196.762802,398.496277 
	C195.541977,404.340729 199.268936,410.571564 205.356873,412.864014 
	C210.796005,414.912170 216.503632,411.337921 219.979584,403.007202 
z"/>
<path fill="#373837" opacity="1.000000" stroke="none" 
	d="
M357.298370,335.988037 
	C367.025360,334.038391 374.387970,339.306702 375.211761,347.893066 
	C375.774902,353.762695 369.760742,361.336548 364.637695,362.223297 
	C358.016632,363.369324 351.697052,360.312775 348.919861,354.026154 
	C346.428375,348.386139 348.782501,341.012878 354.260986,337.430023 
	C355.086243,336.890320 356.033875,336.537811 357.298370,335.988037 
z"/>
<path fill="#605321" opacity="1.000000" stroke="none" 
	d="
M518.545898,515.140259 
	C517.400635,515.501770 515.798950,515.968628 514.197205,515.968994 
	C380.007996,516.002625 245.818771,516.000732 111.629555,515.989502 
	C110.307175,515.989380 108.984818,515.830750 107.331116,515.503540 
	C108.488533,515.163391 109.977272,514.980530 111.466019,514.980408 
	C246.341568,514.967407 381.217102,514.968262 516.092651,514.970886 
	C516.758240,514.970886 517.423828,515.008057 518.545898,515.140259 
z"/>
<path fill="#DEB723" opacity="1.000000" stroke="none" 
	d="
M219.761353,383.869141 
	C215.861740,383.471283 211.901199,382.429138 207.876434,382.022186 
	C197.866180,381.010040 192.474564,386.766083 189.049377,395.674194 
	C188.319763,395.487671 187.753693,394.985474 187.134888,394.436523 
	C184.336365,400.946198 184.336365,400.946198 179.212280,397.474274 
	C180.490982,397.483643 181.933365,397.786713 183.918488,398.203796 
	C186.547363,391.274780 189.212097,384.095551 196.660950,380.066498 
	C197.802628,383.702698 200.018967,381.294800 201.557327,380.940643 
	C207.953857,379.468018 214.163483,378.900024 219.761353,383.869141 
z"/>
<path fill="#453B17" opacity="1.000000" stroke="none" 
	d="
M422.621399,415.642883 
	C413.030762,414.494659 403.295502,413.047852 393.313721,411.317230 
	C402.870361,412.470367 412.673584,413.907318 422.621399,415.642883 
z"/>
<path fill="#DEB723" opacity="1.000000" stroke="none" 
	d="
M190.778244,357.216583 
	C189.012146,363.982330 187.321899,371.089874 184.640640,377.801514 
	C183.843719,379.796356 180.262741,380.678955 177.607880,382.189331 
	C177.275574,382.143433 177.238449,381.870544 177.317810,381.830902 
	C185.552414,377.719360 185.585114,368.992432 188.542953,361.914337 
	C189.173233,360.406128 189.830261,358.909119 190.778244,357.216583 
z"/>
<path fill="#120D02" opacity="1.000000" stroke="none" 
	d="
M335.537292,477.811157 
	C339.000702,477.482025 342.920502,477.071838 346.843597,477.037842 
	C356.940735,476.950317 367.039337,477.029449 377.603760,477.107361 
	C376.890808,477.500214 375.711090,478.112793 374.532135,478.111420 
	C361.686432,478.096802 348.840820,477.986053 335.537292,477.811157 
z"/>
<path fill="#DEB723" opacity="1.000000" stroke="none" 
	d="
M202.224884,420.199127 
	C207.442825,419.240417 212.801910,418.652618 218.546814,417.982391 
	C215.770859,422.060303 207.631866,423.372101 202.224884,420.199127 
z"/>
<path fill="#DEB723" opacity="1.000000" stroke="none" 
	d="
M199.406006,379.009705 
	C205.070236,375.489136 211.288406,375.956604 217.813660,378.674622 
	C211.983932,378.977570 205.909424,379.005524 199.406006,379.009705 
z"/>
<path fill="#DEB723" opacity="1.000000" stroke="none" 
	d="
M227.178680,408.737854 
	C227.116135,404.610352 227.387451,400.283417 227.626282,395.503723 
	C227.566727,399.546814 227.539627,404.042603 227.178680,408.737854 
z"/>
<path fill="#DEB723" opacity="1.000000" stroke="none" 
	d="
M175.997437,383.386566 
	C176.250900,386.624146 176.102951,389.893799 176.026550,393.552551 
	C172.554855,390.595062 173.299728,387.043854 175.997437,383.386566 
z"/>
<path fill="#DEB723" opacity="1.000000" stroke="none" 
	d="
M188.297333,398.253357 
	C188.708023,400.396912 188.859848,402.758087 188.981888,405.564575 
	C188.647552,403.496887 188.343002,400.983917 188.297333,398.253357 
z"/>
<path fill="#DEB723" opacity="1.000000" stroke="none" 
	d="
M237.976440,324.596313 
	C235.639954,325.589844 233.217850,326.294830 230.423645,327.053223 
	C232.664627,326.173676 235.277725,325.240723 237.976440,324.596313 
z"/>
<path fill="#DEB723" opacity="1.000000" stroke="none" 
	d="
M208.666901,342.010712 
	C207.290405,343.361481 205.552444,344.702148 203.478729,346.129852 
	C204.863800,344.811462 206.584625,343.406036 208.666901,342.010712 
z"/>
<path fill="#DEB723" opacity="1.000000" stroke="none" 
	d="
M196.622925,351.008911 
	C195.869965,351.973083 194.766647,352.955261 193.334534,354.004120 
	C194.094681,353.056213 195.183624,352.041565 196.622925,351.008911 
z"/>
<path fill="#DEB723" opacity="1.000000" stroke="none" 
	d="
M211.613342,339.976105 
	C211.186432,340.621490 210.407089,341.268829 209.323257,341.972473 
	C209.766144,341.345184 210.513519,340.661621 211.613342,339.976105 
z"/>
<path fill="#DEB723" opacity="1.000000" stroke="none" 
	d="
M218.600082,334.965179 
	C218.181519,335.630707 217.410507,336.292145 216.331543,336.991272 
	C216.764938,336.339691 217.506287,335.650391 218.600082,334.965179 
z"/>
<path fill="#DEB723" opacity="1.000000" stroke="none" 
	d="
M200.483612,347.936035 
	C200.068085,348.547943 199.316757,349.179443 198.272232,349.877075 
	C198.701965,349.280670 199.424896,348.618164 200.483612,347.936035 
z"/>
<path fill="#DEB723" opacity="1.000000" stroke="none" 
	d="
M219.253815,417.931946 
	C219.690918,417.259369 220.473495,416.592438 221.549393,415.820679 
	C221.094910,416.456421 220.347107,417.196991 219.253815,417.931946 
z"/>
<path fill="#DEB723" opacity="1.000000" stroke="none" 
	d="
M198.002426,418.310974 
	C198.523270,418.227661 199.068985,418.430847 199.800751,418.865387 
	C199.333633,418.930328 198.680466,418.763916 198.002426,418.310974 
z"/>
<path fill="#DEB723" opacity="1.000000" stroke="none" 
	d="
M226.810394,329.099335 
	C226.576813,329.631836 226.023224,330.145813 225.188171,330.724243 
	C225.434601,330.219391 225.962479,329.650085 226.810394,329.099335 
z"/>
<path fill="#DEB723" opacity="1.000000" stroke="none" 
	d="
M223.951324,387.707520 
	C223.394333,387.528107 222.814987,387.024475 222.131409,386.248077 
	C222.661102,386.444641 223.295044,386.913940 223.951324,387.707520 
z"/>
<path fill="#DEB723" opacity="1.000000" stroke="none" 
	d="
M192.488342,354.982178 
	C192.391037,355.529877 191.984222,356.152100 191.316879,356.923767 
	C191.430511,356.401031 191.804672,355.728851 192.488342,354.982178 
z"/>
<path fill="#DEB723" opacity="1.000000" stroke="none" 
	d="
M189.068420,407.066559 
	C189.401352,407.277649 189.693161,407.822205 189.998596,408.681030 
	C189.683914,408.463531 189.355591,407.931793 189.068420,407.066559 
z"/>
<path fill="#DEB723" opacity="1.000000" stroke="none" 
	d="
M226.063583,410.764526 
	C225.968460,410.322144 226.177048,409.769562 226.630493,409.047668 
	C226.705994,409.470337 226.536636,410.062378 226.063583,410.764526 
z"/>
<path fill="#DEB723" opacity="1.000000" stroke="none" 
	d="
M191.009399,411.310364 
	C191.371231,411.429626 191.740906,411.870087 192.192673,412.592163 
	C191.855576,412.459717 191.436401,412.045624 191.009399,411.310364 
z"/>
<path fill="#DEB723" opacity="1.000000" stroke="none" 
	d="
M224.477814,330.924561 
	C224.369888,331.258026 223.978287,331.626984 223.311676,332.039734 
	C223.422485,331.709045 223.808304,331.334564 224.477814,330.924561 
z"/>
<path fill="#DEB723" opacity="1.000000" stroke="none" 
	d="
M176.072250,394.239410 
	C176.452362,394.312622 176.823624,394.707275 177.276520,395.365387 
	C176.926559,395.272827 176.494980,394.916840 176.072250,394.239410 
z"/>
<path fill="#DEB723" opacity="1.000000" stroke="none" 
	d="
M226.980545,392.739868 
	C226.651749,392.569580 226.339981,392.087311 225.989731,391.313080 
	C226.300034,391.490051 226.648804,391.958984 226.980545,392.739868 
z"/>
<path fill="#DEB723" opacity="1.000000" stroke="none" 
	d="
M222.754120,332.052856 
	C222.636383,332.426178 222.199768,332.796570 221.471405,333.211548 
	C221.598190,332.854004 222.016724,332.451935 222.754120,332.052856 
z"/>
<path fill="#DEB723" opacity="1.000000" stroke="none" 
	d="
M214.550171,337.953461 
	C214.439224,338.293213 214.037994,338.671234 213.354340,339.096069 
	C213.467926,338.759155 213.863907,338.375427 214.550171,337.953461 
z"/>
<path fill="#DEB723" opacity="1.000000" stroke="none" 
	d="
M197.315155,379.990479 
	C197.477386,379.663391 197.939285,379.328918 198.697891,378.986420 
	C198.534668,379.313263 198.074738,379.648193 197.315155,379.990479 
z"/>
<path fill="#DEB723" opacity="1.000000" stroke="none" 
	d="
M218.178040,379.196594 
	C218.585876,379.107788 219.146255,379.284760 219.871216,379.710297 
	C219.467407,379.793365 218.898987,379.627869 218.178040,379.196594 
z"/>
<path fill="#DEB723" opacity="1.000000" stroke="none" 
	d="
M220.154480,380.217651 
	C220.544891,380.165558 221.057388,380.375336 221.708710,380.832611 
	C221.323883,380.879913 220.800232,380.679688 220.154480,380.217651 
z"/>
<path fill="#DEB723" opacity="1.000000" stroke="none" 
	d="
M228.595123,327.964233 
	C228.478973,328.309784 228.065094,328.686798 227.363770,329.108459 
	C227.483337,328.767303 227.890350,328.381500 228.595123,327.964233 
z"/>
<path fill="#DEB723" opacity="1.000000" stroke="none" 
	d="
M225.964325,390.731323 
	C225.612091,390.592163 225.257324,390.139771 224.862366,389.393341 
	C225.202057,389.538910 225.581909,389.978485 225.964325,390.731323 
z"/>
<path fill="#DEB723" opacity="1.000000" stroke="none" 
	d="
M177.378067,395.989990 
	C177.647537,395.888275 177.924683,396.083588 178.298843,396.522766 
	C178.059158,396.606750 177.722443,396.446899 177.378067,395.989990 
z"/>
<path fill="#DEB723" opacity="1.000000" stroke="none" 
	d="
M227.623383,394.306732 
	C227.361877,394.285339 227.161133,393.949829 226.954041,393.314575 
	C227.193161,393.340790 227.438660,393.666687 227.623383,394.306732 
z"/>
<path fill="#DEB723" opacity="1.000000" stroke="none" 
	d="
M220.937683,333.240265 
	C221.010483,333.476227 220.808640,333.751343 220.354095,334.104736 
	C220.288589,333.881775 220.475815,333.580597 220.937683,333.240265 
z"/>
<path fill="#DEB723" opacity="1.000000" stroke="none" 
	d="
M215.790039,337.070618 
	C215.957108,337.374695 215.756165,337.620850 215.182312,337.803223 
	C215.040421,337.516357 215.244614,337.274109 215.790039,337.070618 
z"/>
<path fill="#DEB723" opacity="1.000000" stroke="none" 
	d="
M212.876053,339.139984 
	C212.916931,339.349792 212.703613,339.607391 212.235138,339.914825 
	C212.193954,339.705688 212.407898,339.446747 212.876053,339.139984 
z"/>
<path fill="#DEB723" opacity="1.000000" stroke="none" 
	d="
M202.928833,346.192688 
	C202.973572,346.419006 202.752686,346.677948 202.271729,346.984192 
	C202.228836,346.762787 202.446014,346.494049 202.928833,346.192688 
z"/>
<path fill="#DEB723" opacity="1.000000" stroke="none" 
	d="
M201.796188,347.066772 
	C201.959503,347.367065 201.756805,347.610321 201.182922,347.790710 
	C201.048508,347.511169 201.254639,347.271820 201.796188,347.066772 
z"/>
<path fill="#DEB723" opacity="1.000000" stroke="none" 
	d="
M197.702820,350.076019 
	C197.842300,350.299927 197.672470,350.558960 197.202332,350.863342 
	C197.038300,350.629333 197.202133,350.363464 197.702820,350.076019 
z"/>
<path fill="#DEB723" opacity="1.000000" stroke="none" 
	d="
M229.849670,327.110016 
	C229.883392,327.311951 229.667892,327.554443 229.201706,327.844299 
	C229.167511,327.644592 229.383987,327.397583 229.849670,327.110016 
z"/>
<path fill="#DEB723" opacity="1.000000" stroke="none" 
	d="
M224.828644,388.894714 
	C224.613419,388.945374 224.352478,388.736603 224.028717,388.274872 
	C224.238235,388.226379 224.510605,388.430847 224.828644,388.894714 
z"/>
<path fill="#DEB723" opacity="1.000000" stroke="none" 
	d="
M221.920502,385.739136 
	C221.730850,385.809723 221.440414,385.649414 221.059265,385.252197 
	C221.252274,385.179596 221.535995,385.343903 221.920502,385.739136 
z"/>
<path fill="#DEB723" opacity="1.000000" stroke="none" 
	d="
M195.132874,416.163605 
	C195.350037,416.067902 195.674103,416.243805 196.131378,416.667511 
	C195.922989,416.755280 195.581390,416.595245 195.132874,416.163605 
z"/>
<path fill="#DEB723" opacity="1.000000" stroke="none" 
	d="
M193.118484,414.165253 
	C193.325897,414.098328 193.614929,414.288605 193.998276,414.727142 
	C193.795105,414.791077 193.497620,414.606750 193.118484,414.165253 
z"/>
<path fill="#DEB723" opacity="1.000000" stroke="none" 
	d="
M177.010208,382.299805 
	C177.254349,382.614227 177.099121,382.891449 176.615204,383.217041 
	C176.509094,382.995239 176.617203,382.660980 177.010208,382.299805 
z"/>
<path fill="#DEB723" opacity="1.000000" stroke="none" 
	d="
M223.119385,382.197815 
	C223.329010,382.106079 223.647141,382.271149 224.082886,382.684662 
	C223.876297,382.773590 223.552094,382.614105 223.119385,382.197815 
z"/>
<path fill="#DEB723" opacity="1.000000" stroke="none" 
	d="
M220.874115,384.789429 
	C220.672058,384.898254 220.357346,384.765564 219.922882,384.401672 
	C220.122589,384.296326 220.442032,384.422119 220.874115,384.789429 
z"/>
<path fill="#DEB723" opacity="1.000000" stroke="none" 
	d="
M190.238800,409.831848 
	C190.476669,409.829407 190.708664,410.128265 190.974548,410.714691 
	C190.749939,410.712555 190.491409,410.422852 190.238800,409.831848 
z"/>
<path fill="#F6C608" opacity="1.000000" stroke="none" 
	d="
M284.634338,348.387573 
	C292.371857,351.007172 299.691956,353.630432 307.106628,355.951660 
	C312.011139,357.487122 315.026611,360.546417 316.394562,365.437958 
	C318.488281,372.924835 320.657562,380.390594 323.193665,389.260406 
	C299.211945,381.519287 276.143158,374.072845 252.444565,366.423126 
	C255.494125,357.602661 258.341766,349.366302 261.363739,340.625641 
	C269.242310,343.253937 276.749664,345.758423 284.634338,348.387573 
z"/>
<path fill="#F4C50A" opacity="1.000000" stroke="none" 
	d="
M219.620834,355.903137 
	C217.077393,354.967468 214.794983,354.207367 211.401291,353.077179 
	C220.312561,346.808594 228.008179,341.092224 236.023346,335.865875 
	C241.179916,332.503479 246.211044,335.300232 251.687546,337.494019 
	C248.824936,345.956421 246.010071,354.277679 243.086945,362.918945 
	C235.015732,360.539795 227.448792,358.309265 219.620834,355.903137 
z"/>
<path fill="#F6C70B" opacity="1.000000" stroke="none" 
	d="
M293.092072,432.185608 
	C294.805450,424.683624 299.155975,420.888306 305.359589,421.097260 
	C310.842346,421.281921 315.872864,425.728882 316.756866,431.172333 
	C317.637238,436.593506 313.907074,442.362671 308.279907,444.283020 
	C301.018402,446.761108 293.871613,441.261810 293.092072,432.185608 
z"/>
<path fill="#F4C40B" opacity="1.000000" stroke="none" 
	d="
M219.902344,403.405457 
	C216.503632,411.337921 210.796005,414.912170 205.356873,412.864014 
	C199.268936,410.571564 195.541977,404.340729 196.762802,398.496277 
	C198.098785,392.100616 203.337631,388.500488 210.444427,389.094238 
	C216.378525,389.590057 220.428787,395.499878 219.902344,403.405457 
z"/>
</svg>