<svg version="1.1" id="Layer_1" xmlns="http://www.w3.org/2000/svg" xmlns:xlink="http://www.w3.org/1999/xlink" x="0px" y="0px"
	 width="100%" viewBox="0 0 512 512" enable-background="new 0 0 512 512" xml:space="preserve">
<path fill="#000000" opacity="1.000000" stroke="none" 
	d="
M195.000000,513.000000 
	C130.365051,513.000000 65.730103,513.000000 1.095155,513.000000 
	C1.063437,512.865112 1.003916,512.730286 1.003913,512.595398 
	C0.999979,342.179016 1.000000,171.762650 1.000000,1.000000 
	C62.687130,1.000000 124.374908,1.000000 186.465714,1.359298 
	C186.036362,2.167596 185.252029,2.779848 184.364380,3.041153 
	C170.644836,7.079937 157.998291,13.272396 147.546570,23.094097 
	C130.744049,38.883793 121.692596,58.563679 120.097183,81.550812 
	C119.850372,85.107033 118.532555,86.169281 115.244453,86.042877 
	C111.090096,85.883171 106.924561,85.988235 102.764130,86.018044 
	C93.172844,86.086746 86.055588,93.060280 86.029800,102.548912 
	C85.981850,120.189835 86.370796,137.841537 85.846382,155.466980 
	C85.627792,162.813538 95.216782,172.643768 102.501595,172.132034 
	C111.278603,171.515488 120.132339,171.991318 128.973145,172.462921 
	C128.986343,180.955170 128.979248,188.978806 128.589203,197.012146 
	C122.215691,198.203964 120.033768,201.052155 120.027618,208.020096 
	C120.001762,237.337448 120.015793,266.654846 120.014832,295.972229 
	C120.014389,309.464905 119.853264,322.960510 120.102249,336.448547 
	C120.184860,340.924072 118.619385,342.395447 114.316444,342.069275 
	C110.507202,341.780579 106.658409,341.991119 102.827339,342.017456 
	C93.001770,342.084961 86.042473,349.087891 86.023384,359.009430 
	C85.990700,376.000122 86.586624,393.018280 85.778526,409.970520 
	C85.354202,418.872162 95.148865,429.494232 104.040100,428.098450 
	C108.102905,427.460663 112.351753,428.039032 116.515701,428.003632 
	C119.297096,427.979980 120.685211,429.072418 121.039703,432.044800 
	C122.510323,444.375946 126.489204,455.861725 132.822830,466.588013 
	C146.039825,488.971649 165.091888,503.559967 190.220856,510.275940 
	C191.934189,510.733887 193.412415,512.071533 195.000000,513.000000 
z"/>
<path fill="#000000" opacity="1.000000" stroke="none" 
	d="
M327.000000,1.000005 
	C388.969574,1.000000 450.939178,1.000000 512.908752,0.999999 
	C512.939209,1.136169 512.996216,1.272339 512.996277,1.408511 
	C513.000000,171.824875 513.000000,342.241241 513.000000,513.000000 
	C448.646179,513.000000 384.291748,513.000000 319.530182,512.635986 
	C319.792938,511.851044 320.410858,511.221283 321.140320,511.039825 
	C336.202759,507.293243 349.634827,500.572662 361.466827,490.354279 
	C379.070190,475.151703 389.234558,455.975952 392.814362,433.255615 
	C393.462616,429.141113 394.826263,427.760651 398.720520,427.952484 
	C402.541687,428.140656 406.380096,428.025787 410.210114,427.978638 
	C420.887878,427.847137 427.928223,420.807617 427.968262,410.056030 
	C428.032104,392.901947 427.940613,375.747223 428.010681,358.593170 
	C428.033783,352.933746 425.209686,348.994873 421.146545,345.477783 
	C415.091003,340.235992 407.868805,342.328796 401.060516,342.066254 
	C394.010956,341.794403 393.988373,341.990234 393.987762,334.837891 
	C393.983337,282.875244 393.985413,230.912582 393.986053,178.949921 
	C393.986053,178.117203 394.055023,177.279434 393.986816,176.452682 
	C393.728455,173.320694 394.981171,171.824203 398.278687,171.969299 
	C401.769165,172.122894 405.272034,171.998779 408.769501,171.987823 
	C421.253113,171.948700 427.961487,165.345200 427.981262,152.998566 
	C428.007690,136.510468 427.866180,120.020973 428.045013,103.534767 
	C428.119965,96.625717 425.214874,91.187401 419.351196,88.541870 
	C414.922272,86.543648 409.506531,86.305298 404.498016,86.111954 
	C395.279541,85.756096 395.270477,86.009911 393.564026,77.334198 
	C393.404022,76.520645 393.163574,75.718002 393.066223,74.897736 
	C390.811768,55.895382 382.584534,39.705181 369.440918,26.051313 
	C358.999146,15.204128 346.305939,7.899735 331.774536,3.784082 
	C330.057892,3.297881 328.585571,1.948994 327.000000,1.000005 
z"/>
<path fill="#393939" opacity="1.000000" stroke="none" 
	d="
M326.531342,1.000005 
	C328.585571,1.948994 330.057892,3.297881 331.774536,3.784082 
	C346.305939,7.899735 358.999146,15.204128 369.440918,26.051313 
	C382.584534,39.705181 390.811768,55.895382 393.066223,74.897736 
	C393.163574,75.718002 393.404022,76.520645 393.564026,77.334198 
	C395.270477,86.009911 395.279541,85.756096 404.498016,86.111954 
	C409.506531,86.305298 414.922272,86.543648 419.351196,88.541870 
	C425.214874,91.187401 428.119965,96.625717 428.045013,103.534767 
	C427.866180,120.020973 428.007690,136.510468 427.981262,152.998566 
	C427.961487,165.345200 421.253113,171.948700 408.769501,171.987823 
	C405.272034,171.998779 401.769165,172.122894 398.278687,171.969299 
	C394.981171,171.824203 393.728455,173.320694 393.986816,176.452682 
	C394.055023,177.279434 393.986053,178.117203 393.986053,178.949921 
	C393.985413,230.912582 393.983337,282.875244 393.987762,334.837891 
	C393.988373,341.990234 394.010956,341.794403 401.060516,342.066254 
	C407.868805,342.328796 415.091003,340.235992 421.146545,345.477783 
	C425.209686,348.994873 428.033783,352.933746 428.010681,358.593170 
	C427.940613,375.747223 428.032104,392.901947 427.968262,410.056030 
	C427.928223,420.807617 420.887878,427.847137 410.210114,427.978638 
	C406.380096,428.025787 402.541687,428.140656 398.720520,427.952484 
	C394.826263,427.760651 393.462616,429.141113 392.814362,433.255615 
	C389.234558,455.975952 379.070190,475.151703 361.466827,490.354279 
	C349.634827,500.572662 336.202759,507.293243 321.140320,511.039825 
	C320.410858,511.221283 319.792938,511.851044 319.061523,512.635986 
	C277.979095,513.000000 236.958206,513.000000 195.468658,513.000000 
	C193.412415,512.071533 191.934189,510.733887 190.220856,510.275940 
	C165.091888,503.559967 146.039825,488.971649 132.822830,466.588013 
	C126.489204,455.861725 122.510323,444.375946 121.039703,432.044800 
	C120.685211,429.072418 119.297096,427.979980 116.515701,428.003632 
	C112.351753,428.039032 108.102905,427.460663 104.040100,428.098450 
	C95.148865,429.494232 85.354202,418.872162 85.778526,409.970520 
	C86.586624,393.018280 85.990700,376.000122 86.023384,359.009430 
	C86.042473,349.087891 93.001770,342.084961 102.827339,342.017456 
	C106.658409,341.991119 110.507202,341.780579 114.316444,342.069275 
	C118.619385,342.395447 120.184860,340.924072 120.102249,336.448547 
	C119.853264,322.960510 120.014389,309.464905 120.014832,295.972229 
	C120.015793,266.654846 120.001762,237.337448 120.027618,208.020096 
	C120.033768,201.052155 122.215691,198.203964 128.934921,197.118668 
	C136.422729,199.431625 137.570526,201.187195 137.571548,209.623611 
	C137.579803,277.944458 137.556137,346.265320 137.615540,414.586121 
	C137.620300,420.069946 137.619888,425.650116 138.559662,431.021423 
	C145.362061,469.900421 176.492233,495.890015 216.074554,495.951294 
	C243.402832,495.993591 270.731689,496.040497 298.059204,495.890930 
	C303.524109,495.861023 309.088898,495.461761 314.429688,494.365784 
	C351.802582,486.696747 376.358856,456.091583 376.390045,416.942200 
	C376.477142,307.628906 376.438751,198.315521 376.367035,89.002228 
	C376.363647,83.866577 375.455780,78.737381 375.164856,73.594109 
	C374.955048,69.884445 373.091370,68.992592 369.626587,69.109688 
	C362.803497,69.340279 355.960175,69.305855 349.135071,69.081390 
	C328.854462,68.414413 311.895447,53.373348 308.897980,33.327972 
	C308.168121,28.447243 308.102051,23.467257 307.714813,18.320797 
	C273.833923,18.320797 240.106079,18.320797 205.856232,18.320797 
	C205.856232,21.384914 205.930420,24.177704 205.844589,26.965569 
	C205.111282,50.785896 187.075455,68.688271 163.285431,69.152153 
	C156.622421,69.282074 149.952728,69.282959 143.290588,69.137329 
	C140.612213,69.078781 139.216003,69.975670 138.995605,72.680580 
	C138.550110,78.148064 137.678436,83.608986 137.643173,89.076866 
	C137.490540,112.738228 137.593826,136.401138 137.565338,160.063446 
	C137.555954,167.850311 136.201599,169.650467 128.952866,171.994278 
	C120.132339,171.991318 111.278603,171.515488 102.501595,172.132034 
	C95.216782,172.643768 85.627792,162.813538 85.846382,155.466980 
	C86.370796,137.841537 85.981850,120.189835 86.029800,102.548912 
	C86.055588,93.060280 93.172844,86.086746 102.764130,86.018044 
	C106.924561,85.988235 111.090096,85.883171 115.244453,86.042877 
	C118.532555,86.169281 119.850372,85.107033 120.097183,81.550812 
	C121.692596,58.563679 130.744049,38.883793 147.546570,23.094097 
	C157.998291,13.272396 170.644836,7.079937 184.364380,3.041153 
	C185.252029,2.779848 186.036362,2.167596 186.934372,1.359298 
	C233.354233,1.000000 279.708466,1.000000 326.531342,1.000005 
M103.258736,133.499649 
	C103.258545,136.663620 103.207054,139.828583 103.267075,142.991409 
	C103.521477,156.398453 101.037445,154.485352 115.299706,154.793900 
	C119.304329,154.880524 120.451576,153.260483 120.397697,149.478546 
	C120.234039,137.990692 120.467590,126.497253 120.309120,115.009262 
	C120.124756,101.644676 122.887756,103.457695 107.801857,103.225121 
	C104.253159,103.170403 103.171158,104.692177 103.223907,108.021355 
	C103.353165,116.178970 103.261887,124.340073 103.258736,133.499649 
M394.389282,104.171669 
	C394.145599,106.126747 393.703033,108.080620 393.691132,110.037109 
	C393.623199,121.201836 393.573639,132.367996 393.680054,143.532104 
	C393.800476,156.164597 391.797333,154.457886 404.754639,154.814957 
	C409.230621,154.938293 410.963257,153.620972 410.832703,148.913574 
	C410.537201,138.256577 410.741486,127.585747 410.741760,116.920547 
	C410.742157,101.686157 410.741852,101.686157 394.389282,104.171669 
M103.258736,378.501129 
	C103.264587,387.826538 103.290176,397.152008 103.263031,406.477325 
	C103.255844,408.945312 103.859917,411.105743 106.789871,410.631287 
	C111.246559,409.909607 116.357277,413.032806 120.136620,408.451019 
	C120.400169,408.131500 120.306046,407.481659 120.306313,406.985382 
	C120.314049,392.331299 120.273254,377.677032 120.339996,363.023254 
	C120.357048,359.278076 117.815704,358.741211 115.330139,359.375305 
	C111.325050,360.396973 105.818665,355.980530 103.344307,362.526245 
	C103.121880,363.114716 103.266541,363.847412 103.265625,364.513184 
	C103.259689,368.842834 103.260658,373.172516 103.258736,378.501129 
M407.017181,410.710938 
	C410.769440,410.872772 410.744598,408.284546 410.741791,405.653778 
	C410.729309,393.988525 410.838409,382.322266 410.715515,370.658325 
	C410.578705,357.675201 412.831818,359.499176 398.833313,359.208740 
	C394.967926,359.128540 393.530212,360.450989 393.595978,364.395172 
	C393.784760,375.723938 393.658783,387.057922 393.657928,398.389862 
	C393.657013,410.772736 393.657684,410.772736 407.017181,410.710938 
M345.904907,29.556255 
	C339.646515,25.515896 333.127441,22.118076 325.629089,20.739134 
	C323.948975,34.592552 329.770020,45.495609 341.048767,50.178089 
	C349.320892,53.612320 357.858093,51.592976 367.133698,52.240612 
	C361.475616,42.531776 354.694244,35.591801 345.904907,29.556255 
M151.542068,45.052357 
	C150.133301,47.198677 148.724533,49.344994 146.898605,52.126869 
	C152.514725,52.126869 157.164459,52.156120 161.813721,52.121670 
	C179.470276,51.990833 190.760498,38.863781 188.305862,20.466297 
	C173.449921,24.574329 161.435379,32.530514 151.542068,45.052357 
z"/>
<path fill="#BCC1CB" opacity="1.000000" stroke="none" 
	d="
M128.973145,172.462921 
	C136.201599,169.650467 137.555954,167.850311 137.565338,160.063446 
	C137.593826,136.401138 137.490540,112.738228 137.643173,89.076866 
	C137.678436,83.608986 138.550110,78.148064 138.995605,72.680580 
	C139.216003,69.975670 140.612213,69.078781 143.290588,69.137329 
	C149.952728,69.282959 156.622421,69.282074 163.285431,69.152153 
	C187.075455,68.688271 205.111282,50.785896 205.844589,26.965569 
	C205.930420,24.177704 205.856232,21.384914 205.856232,18.320797 
	C240.106079,18.320797 273.833923,18.320797 307.714813,18.320797 
	C308.102051,23.467257 308.168121,28.447243 308.897980,33.327972 
	C311.895447,53.373348 328.854462,68.414413 349.135071,69.081390 
	C355.960175,69.305855 362.803497,69.340279 369.626587,69.109688 
	C373.091370,68.992592 374.955048,69.884445 375.164856,73.594109 
	C375.455780,78.737381 376.363647,83.866577 376.367035,89.002228 
	C376.438751,198.315521 376.477142,307.628906 376.390045,416.942200 
	C376.358856,456.091583 351.802582,486.696747 314.429688,494.365784 
	C309.088898,495.461761 303.524109,495.861023 298.059204,495.890930 
	C270.731689,496.040497 243.402832,495.993591 216.074554,495.951294 
	C176.492233,495.890015 145.362061,469.900421 138.559662,431.021423 
	C137.619888,425.650116 137.620300,420.069946 137.615540,414.586121 
	C137.556137,346.265320 137.579803,277.944458 137.571548,209.623611 
	C137.570526,201.187195 136.422729,199.431625 129.317902,197.108948 
	C128.979248,188.978806 128.986343,180.955170 128.973145,172.462921 
M202.684967,274.037628 
	C239.006744,274.037476 275.328644,273.989258 311.650208,274.072327 
	C320.278534,274.092072 326.290436,270.419769 329.772034,262.556915 
	C338.999878,241.716583 348.310211,220.912201 357.418732,200.019836 
	C362.635559,188.053909 357.043274,177.061172 344.315521,173.920517 
	C286.311829,159.607712 228.298279,159.528885 170.266068,173.819885 
	C156.916748,177.107269 151.273560,187.863235 156.750122,200.380890 
	C165.818741,221.108887 175.033844,241.772797 184.180908,262.466492 
	C187.554474,270.098633 193.289230,274.127655 202.684967,274.037628 
M262.500244,359.327606 
	C244.350037,359.328217 226.199692,359.284760 208.049683,359.344604 
	C195.511703,359.385925 188.870499,366.008118 188.824173,378.397766 
	C188.786194,388.555054 188.746094,398.713379 188.844727,408.869873 
	C188.927811,417.424103 192.889923,423.074188 200.833496,425.971588 
	C238.083817,439.558411 275.379364,439.729736 312.664246,426.123352 
	C321.332947,422.959900 325.094788,417.562744 325.164856,408.389343 
	C325.241119,398.398987 325.218231,388.407410 325.175415,378.416656 
	C325.122162,365.986053 318.516205,359.399963 305.961731,359.343933 
	C291.808167,359.280792 277.654114,359.328278 262.500244,359.327606 
M274.265411,54.271248 
	C279.833832,81.998924 285.394653,109.728134 290.976624,137.453079 
	C292.218689,143.622299 296.187103,146.857346 301.223328,145.903229 
	C306.296967,144.942001 308.981293,140.391830 307.768707,134.317307 
	C302.264832,106.745445 296.711914,79.183296 291.116455,51.629883 
	C289.946411,45.868385 286.328430,42.869751 281.642303,43.428513 
	C276.834167,44.001827 274.259277,47.430977 274.265411,54.271248 
M221.960281,141.216476 
	C222.240341,140.433014 222.623672,139.670242 222.785538,138.863083 
	C228.411621,110.804886 234.040131,82.747131 239.603973,54.676552 
	C240.632034,49.489834 237.682526,44.953400 232.982010,44.065918 
	C228.148590,43.153347 224.051819,45.950684 222.932953,51.430801 
	C217.275208,79.142265 211.714890,106.873711 206.169617,134.607971 
	C205.274765,139.083603 206.213074,143.013977 210.721375,145.126938 
	C215.191071,147.221802 218.784378,145.714462 221.960281,141.216476 
M345.379211,357.300842 
	C352.879486,361.598572 359.194122,358.242462 359.302277,349.669159 
	C359.461639,337.037628 359.353760,324.402679 359.353149,311.769165 
	C359.352692,302.294067 359.454681,292.817047 359.295990,283.344513 
	C359.189941,277.014587 354.377197,272.869232 349.004303,274.308960 
	C344.076385,275.629456 342.244171,279.272980 342.245056,284.102081 
	C342.249084,305.878265 342.166229,327.655151 342.358673,349.429657 
	C342.380341,351.881744 343.944427,354.320221 345.379211,357.300842 
M171.759171,286.744110 
	C171.707687,278.245819 168.879044,274.090332 163.134872,274.074341 
	C157.388474,274.058350 154.656906,278.122009 154.650391,286.749725 
	C154.640350,300.072418 154.641357,313.395142 154.647934,326.717834 
	C154.651871,334.711182 154.508469,342.709473 154.744339,350.696289 
	C154.923157,356.750549 159.581894,360.284363 165.158508,359.047577 
	C169.460434,358.093567 171.729645,354.649719 171.741943,348.638824 
	C171.783539,328.321808 171.758789,308.004608 171.759171,286.744110 
z"/>
<path fill="#7A808C" opacity="1.000000" stroke="none" 
	d="
M103.259041,132.999710 
	C103.261887,124.340073 103.353165,116.178970 103.223907,108.021355 
	C103.171158,104.692177 104.253159,103.170403 107.801857,103.225121 
	C122.887756,103.457695 120.124756,101.644676 120.309120,115.009262 
	C120.467590,126.497253 120.234039,137.990692 120.397697,149.478546 
	C120.451576,153.260483 119.304329,154.880524 115.299706,154.793900 
	C101.037445,154.485352 103.521477,156.398453 103.267075,142.991409 
	C103.207054,139.828583 103.258545,136.663620 103.259041,132.999710 
z"/>
<path fill="#7A808C" opacity="1.000000" stroke="none" 
	d="
M394.762878,103.918854 
	C410.741852,101.686157 410.742157,101.686157 410.741760,116.920547 
	C410.741486,127.585747 410.537201,138.256577 410.832703,148.913574 
	C410.963257,153.620972 409.230621,154.938293 404.754639,154.814957 
	C391.797333,154.457886 393.800476,156.164597 393.680054,143.532104 
	C393.573639,132.367996 393.623199,121.201836 393.691132,110.037109 
	C393.703033,108.080620 394.145599,106.126747 394.762878,103.918854 
z"/>
<path fill="#7A808C" opacity="1.000000" stroke="none" 
	d="
M103.259048,378.001648 
	C103.260658,373.172516 103.259689,368.842834 103.265625,364.513184 
	C103.266541,363.847412 103.121880,363.114716 103.344307,362.526245 
	C105.818665,355.980530 111.325050,360.396973 115.330139,359.375305 
	C117.815704,358.741211 120.357048,359.278076 120.339996,363.023254 
	C120.273254,377.677032 120.314049,392.331299 120.306313,406.985382 
	C120.306046,407.481659 120.400169,408.131500 120.136620,408.451019 
	C116.357277,413.032806 111.246559,409.909607 106.789871,410.631287 
	C103.859917,411.105743 103.255844,408.945312 103.263031,406.477325 
	C103.290176,397.152008 103.264587,387.826538 103.259048,378.001648 
z"/>
<path fill="#7A808C" opacity="1.000000" stroke="none" 
	d="
M406.565613,410.720825 
	C393.657684,410.772736 393.657013,410.772736 393.657928,398.389862 
	C393.658783,387.057922 393.784760,375.723938 393.595978,364.395172 
	C393.530212,360.450989 394.967926,359.128540 398.833313,359.208740 
	C412.831818,359.499176 410.578705,357.675201 410.715515,370.658325 
	C410.838409,382.322266 410.729309,393.988525 410.741791,405.653778 
	C410.744598,408.284546 410.769440,410.872772 406.565613,410.720825 
z"/>
<path fill="#F8D275" opacity="1.000000" stroke="none" 
	d="
M346.204102,29.758718 
	C354.694244,35.591801 361.475616,42.531776 367.133698,52.240612 
	C357.858093,51.592976 349.320892,53.612320 341.048767,50.178089 
	C329.770020,45.495609 323.948975,34.592552 325.629089,20.739134 
	C333.127441,22.118076 339.646515,25.515896 346.204102,29.758718 
z"/>
<path fill="#F8D275" opacity="1.000000" stroke="none" 
	d="
M151.760742,44.772408 
	C161.435379,32.530514 173.449921,24.574329 188.305862,20.466297 
	C190.760498,38.863781 179.470276,51.990833 161.813721,52.121670 
	C157.164459,52.156120 152.514725,52.126869 146.898605,52.126869 
	C148.724533,49.344994 150.133301,47.198677 151.760742,44.772408 
z"/>
<path fill="#383839" opacity="1.000000" stroke="none" 
	d="
M202.214706,274.036926 
	C193.289230,274.127655 187.554474,270.098633 184.180908,262.466492 
	C175.033844,241.772797 165.818741,221.108887 156.750122,200.380890 
	C151.273560,187.863235 156.916748,177.107269 170.266068,173.819885 
	C228.298279,159.528885 286.311829,159.607712 344.315521,173.920517 
	C357.043274,177.061172 362.635559,188.053909 357.418732,200.019836 
	C348.310211,220.912201 338.999878,241.716583 329.772034,262.556915 
	C326.290436,270.419769 320.278534,274.092072 311.650208,274.072327 
	C275.328644,273.989258 239.006744,274.037476 202.214706,274.036926 
M210.562241,256.812256 
	C243.389496,256.873749 276.217072,256.884216 309.043549,257.074402 
	C312.385925,257.093750 313.979797,256.076904 315.325562,252.982864 
	C323.624359,233.903107 332.175781,214.933304 340.615631,195.914688 
	C341.250305,194.484451 341.670135,192.958862 342.352173,191.014908 
	C285.087158,176.653244 228.579956,176.618103 171.447037,191.089050 
	C172.339432,193.285553 172.915298,194.817078 173.575775,196.311218 
	C181.180862,213.515228 189.114334,230.584106 196.251190,247.979904 
	C198.941513,254.537491 202.128265,258.390533 210.562241,256.812256 
z"/>
<path fill="#39393A" opacity="1.000000" stroke="none" 
	d="
M263.000244,359.327637 
	C277.654114,359.328278 291.808167,359.280792 305.961731,359.343933 
	C318.516205,359.399963 325.122162,365.986053 325.175415,378.416656 
	C325.218231,388.407410 325.241119,398.398987 325.164856,408.389343 
	C325.094788,417.562744 321.332947,422.959900 312.664246,426.123352 
	C275.379364,439.729736 238.083817,439.558411 200.833496,425.971588 
	C192.889923,423.074188 188.927811,417.424103 188.844727,408.869873 
	C188.746094,398.713379 188.786194,388.555054 188.824173,378.397766 
	C188.870499,366.008118 195.511703,359.385925 208.049683,359.344604 
	C226.199692,359.284760 244.350037,359.328217 263.000244,359.327637 
M282.305450,416.918396 
	C289.847534,414.892395 297.411194,412.940674 304.909973,410.765381 
	C306.122223,410.413757 307.947052,409.087311 307.965912,408.179840 
	C308.182159,397.770508 308.103607,387.355072 308.103607,376.838379 
	C273.672852,376.838379 239.978455,376.838379 205.878357,376.838379 
	C205.878357,386.555359 206.044449,395.866486 205.791885,405.166229 
	C205.698364,408.610352 206.879608,410.065674 210.081833,411.166077 
	C233.397049,419.178223 257.160675,421.150818 282.305450,416.918396 
z"/>
<path fill="#393939" opacity="1.000000" stroke="none" 
	d="
M274.194946,53.855858 
	C274.259277,47.430977 276.834167,44.001827 281.642303,43.428513 
	C286.328430,42.869751 289.946411,45.868385 291.116455,51.629883 
	C296.711914,79.183296 302.264832,106.745445 307.768707,134.317307 
	C308.981293,140.391830 306.296967,144.942001 301.223328,145.903229 
	C296.187103,146.857346 292.218689,143.622299 290.976624,137.453079 
	C285.394653,109.728134 279.833832,81.998924 274.194946,53.855858 
z"/>
<path fill="#393939" opacity="1.000000" stroke="none" 
	d="
M221.782944,141.562561 
	C218.784378,145.714462 215.191071,147.221802 210.721375,145.126938 
	C206.213074,143.013977 205.274765,139.083603 206.169617,134.607971 
	C211.714890,106.873711 217.275208,79.142265 222.932953,51.430801 
	C224.051819,45.950684 228.148590,43.153347 232.982010,44.065918 
	C237.682526,44.953400 240.632034,49.489834 239.603973,54.676552 
	C234.040131,82.747131 228.411621,110.804886 222.785538,138.863083 
	C222.623672,139.670242 222.240341,140.433014 221.782944,141.562561 
z"/>
<path fill="#3A3A3A" opacity="1.000000" stroke="none" 
	d="
M345.086243,357.032898 
	C343.944427,354.320221 342.380341,351.881744 342.358673,349.429657 
	C342.166229,327.655151 342.249084,305.878265 342.245056,284.102081 
	C342.244171,279.272980 344.076385,275.629456 349.004303,274.308960 
	C354.377197,272.869232 359.189941,277.014587 359.295990,283.344513 
	C359.454681,292.817047 359.352692,302.294067 359.353149,311.769165 
	C359.353760,324.402679 359.461639,337.037628 359.302277,349.669159 
	C359.194122,358.242462 352.879486,361.598572 345.086243,357.032898 
z"/>
<path fill="#3A3A3A" opacity="1.000000" stroke="none" 
	d="
M171.759277,287.215820 
	C171.758789,308.004608 171.783539,328.321808 171.741943,348.638824 
	C171.729645,354.649719 169.460434,358.093567 165.158508,359.047577 
	C159.581894,360.284363 154.923157,356.750549 154.744339,350.696289 
	C154.508469,342.709473 154.651871,334.711182 154.647934,326.717834 
	C154.641357,313.395142 154.640350,300.072418 154.650391,286.749725 
	C154.656906,278.122009 157.388474,274.058350 163.134872,274.074341 
	C168.879044,274.090332 171.707687,278.245819 171.759277,287.215820 
z"/>
<path fill="#4E97EB" opacity="1.000000" stroke="none" 
	d="
M210.076477,256.807556 
	C202.128265,258.390533 198.941513,254.537491 196.251190,247.979904 
	C189.114334,230.584106 181.180862,213.515228 173.575775,196.311218 
	C172.915298,194.817078 172.339432,193.285553 171.447037,191.089050 
	C228.579956,176.618103 285.087158,176.653244 342.352173,191.014908 
	C341.670135,192.958862 341.250305,194.484451 340.615631,195.914688 
	C332.175781,214.933304 323.624359,233.903107 315.325562,252.982864 
	C313.979797,256.076904 312.385925,257.093750 309.043549,257.074402 
	C276.217072,256.884216 243.389496,256.873749 210.076477,256.807556 
z"/>
<path fill="#4E97E9" opacity="1.000000" stroke="none" 
	d="
M281.876740,416.963715 
	C257.160675,421.150818 233.397049,419.178223 210.081833,411.166077 
	C206.879608,410.065674 205.698364,408.610352 205.791885,405.166229 
	C206.044449,395.866486 205.878357,386.555359 205.878357,376.838379 
	C239.978455,376.838379 273.672852,376.838379 308.103607,376.838379 
	C308.103607,387.355072 308.182159,397.770508 307.965912,408.179840 
	C307.947052,409.087311 306.122223,410.413757 304.909973,410.765381 
	C297.411194,412.940674 289.847534,414.892395 281.876740,416.963715 
z"/>
</svg>