<svg xmlns="http://www.w3.org/2000/svg" xmlns:xlink="http://www.w3.org/1999/xlink" version="1.1" x="0px" y="0px" viewBox="-81.5 -14.5 181.5 159.375" enable-background="new -81.5 -14.5 181.5 127.5" xml:space="preserve"><path d="M-35.544,36.82c-1.406-4.218-3.584-7.933-6.527-11.146c-1.876-2.007-3.715-3.08-5.523-3.213  c-1.807-0.135-3.282,0.267-4.418,1.206c-1.139,0.934-1.877,2.107-2.209,3.513c-0.335,1.406-0.034,2.642,0.904,3.716  c2.541,2.677,4.418,5.624,5.622,8.836c1.205,3.213,1.809,6.458,1.809,9.741c0,3.278-0.604,6.492-1.809,9.64  c-1.204,3.144-3.081,5.989-5.622,8.535c-1.074,1.069-1.441,2.34-1.104,3.814c0.332,1.473,1.104,2.643,2.308,3.517  c1.206,0.867,2.712,1.234,4.519,1.104c1.808-0.135,3.646-1.275,5.523-3.414c2.943-2.812,5.121-6.261,6.527-10.342  c1.406-4.086,2.109-8.303,2.109-12.653S-34.138,41.039-35.544,36.82z"/><path d="M-67.776,39.53c-2.812,0.001-5.157,0.971-7.029,2.913c-1.877,1.939-2.812,4.316-2.812,7.128c0,2.678,0.935,4.988,2.812,6.93  c1.872,1.939,4.216,2.912,7.029,2.912c2.943,0,5.387-0.973,7.33-2.912c1.939-1.941,2.912-4.252,2.912-6.929  c0-2.812-0.973-5.189-2.912-7.129C-62.389,40.501-64.833,39.53-67.776,39.53z"/><path d="M-6.123,49.373c0-6.697-1.275-13.324-3.816-19.883c-2.544-6.562-6.36-12.787-11.447-18.677  c-2.409-2.812-4.688-4.318-6.828-4.519c-2.144-0.201-3.785,0.366-4.92,1.707c-1.139,1.338-1.607,3.113-1.405,5.322  c0.2,2.209,1.371,4.383,3.513,6.526c3.881,4.148,6.793,8.802,8.737,13.958c1.938,5.152,2.912,10.41,2.912,15.765  c0,5.353-0.974,10.608-2.912,15.766c-1.944,5.151-4.856,9.805-8.737,13.956c-2.143,2.274-3.314,4.52-3.514,6.729  c-0.202,2.209,0.267,3.915,1.405,5.121c1.136,1.205,2.743,1.773,4.82,1.706c2.074-0.068,4.317-1.305,6.728-3.716  c5.222-6.293,9.103-12.82,11.647-19.58C-7.398,62.793-6.123,56.064-6.123,49.373z"/><path d="M6.494,78.743c-1.923-1.091-3.622-2.422-5.081-3.929c-2.892,6.543-6.872,12.591-11.954,18.137  c-2.812,2.541-4.319,5.052-4.519,7.532c-0.2,2.474,0.301,4.383,1.506,5.723c1.205,1.337,2.912,1.907,5.121,1.706  c2.208-0.199,4.384-1.706,6.526-4.517c3.557-3.623,6.674-7.501,9.371-11.623c-0.622-1.235-0.971-2.645-0.971-4.192V78.743z"/><path d="M2.914,24.168c1.422,3.787,2.485,7.597,3.205,11.43c1.048-0.623,2.152-1.179,3.319-1.644l2.331-12.916l0.022-0.126  l0.033-0.125c0.491-1.816,1.116-3.515,1.841-5.115C10.009,6.828,4.832-1.16-1.906-8.265c-1.74-1.742-3.482-2.579-5.22-2.51  c-1.742,0.065-3.148,0.703-4.218,1.908c-1.074,1.206-1.608,2.843-1.608,4.919c0,2.075,0.803,4.25,2.411,6.528  C-4.518,9.138-0.033,16.337,2.914,24.168z"/><path d="M83.243,35.918L80.75,22.006C78.664,10.246,70.578,3.5,58.568,3.5H36.804c-10.203,0-18.14,6.073-21.55,16.335  c-0.189,0.569-0.372,1.143-0.533,1.736l-2.639,14.627c-1.97,0.616-3.8,1.505-5.438,2.615c-4.837,3.28-7.979,8.501-7.979,14.382  v7.721c0,4.061,1.504,7.801,4.021,10.811c1.805,2.158,4.127,3.943,6.807,5.189V87.58c0,0.284,0.021,0.557,0.052,0.823  c0.417,3.513,3.5,5.478,7.247,5.478c4.031,0,7.298-2.271,7.298-6.301v-8.676h47.151v8.676c0,4.029,3.268,6.301,7.297,6.301  c4.033,0,7.301-2.271,7.301-6.301V77.334c6.938-2.807,11.79-9.102,11.79-16.418v-7.721C97.631,45,91.539,38.081,83.243,35.918z   M24.479,23.997c1.123-3.995,4.194-10.446,12.325-10.446H58.57c7.24,0,11.029,3.148,12.283,10.22l2.051,11.436H22.47L24.479,23.997z   M20.025,65.514c-0.584,0-1.153-0.061-1.703-0.174c-3.811-0.787-6.674-4.161-6.674-8.203c0-4.627,3.75-8.377,8.377-8.377  c0.049,0,0.096,0.006,0.145,0.008c4.557,0.078,8.23,3.791,8.23,8.369C28.4,61.762,24.65,65.514,20.025,65.514z M74.825,65.514  c-4.625,0-8.375-3.752-8.375-8.377c0-4.627,3.75-8.377,8.375-8.377c4.627,0,8.377,3.75,8.377,8.377  C83.202,61.762,79.452,65.514,74.825,65.514z"/><text x="-81.5" y="128" fill="#000000" font-size="5px" font-weight="bold" font-family="'Helvetica Neue', Helvetica, Arial-Unicode, Arial, Sans-serif"></text><text x="-81.5" y="133" fill="#000000" font-size="5px" font-weight="bold" font-family="'Helvetica Neue', Helvetica, Arial-Unicode, Arial, Sans-serif"></text></svg>