<svg xmlns="http://www.w3.org/2000/svg" shape-rendering="geometricPrecision" text-rendering="geometricPrecision" image-rendering="optimizeQuality" fill-rule="evenodd" clip-rule="evenodd" viewBox="0 0 512 512"><path fill="#D92D27" d="M512 256c0 141.33-114.67 256-256 256C114.66 512 0 397.33 0 256 0 114.66 114.66 0 256 0c141.33 0 256 114.67 256 256z"/><path fill="#fff" d="M256 50.33c113.59 0 205.67 92.09 205.67 205.67 0 113.58-92.08 205.66-205.67 205.66-113.58 0-205.66-92.08-205.66-205.66S142.42 50.33 256 50.33z"/><path fill-rule="nonzero" d="M136.71 323.97V220.6h-21.59v-22.69l25.62-10.98h31.47v137.04h-35.5zm51.05 0v-28.18l42.26-43.18c2.69-2.68 4.94-5.18 6.77-7.5 1.83-2.31 3.26-4.57 4.3-6.77 1.04-2.19 1.56-4.45 1.56-6.77 0-2.56-.49-4.66-1.47-6.31-.97-1.64-2.47-2.83-4.48-3.57-2.01-.73-4.61-1.09-7.78-1.09h-38.97v-28.18c5.98-1.34 12.66-2.59 20.04-3.75 7.38-1.16 15.94-1.74 25.7-1.74 10.74 0 19.18 1.47 25.34 4.39 6.16 2.93 10.55 7.26 13.18 12.99 2.62 5.74 3.93 12.75 3.93 21.04 0 5.98-.79 11.41-2.38 16.29a51.867 51.867 0 01-6.86 13.72c-2.99 4.27-6.62 8.54-10.89 12.81l-23.42 23.96h47.21v31.84h-94.04zm143.62 1.09c-8.29 0-15.22-1.46-20.77-4.39-5.55-2.92-9.66-7.16-12.35-12.71-2.68-5.55-4.02-12.17-4.02-19.85v-62.39c0-8.42 1.43-15.49 4.3-21.22 2.87-5.74 7.1-10.1 12.71-13.09 5.61-2.98 12.38-4.48 20.31-4.48h29.64c7.69 0 14.18 1.5 19.49 4.48 5.3 2.99 9.33 7.35 12.07 13.09 2.75 5.73 4.12 12.8 4.12 21.22v62.39c0 11.46-3.08 20.49-9.24 27.08-6.16 6.58-15.03 9.87-26.62 9.87h-29.64zm8.78-31.83h10.98c3.29 0 5.82-.82 7.59-2.47 1.77-1.65 2.66-4.36 2.66-8.14v-53.24c0-4.27-.86-7.11-2.57-8.51-1.7-1.4-3.78-2.1-6.22-2.1h-13.72c-3.17 0-5.49.85-6.95 2.56s-2.2 4.39-2.2 8.05v53.06c0 3.9.86 6.67 2.56 8.32 1.71 1.65 4.33 2.47 7.87 2.47z"/></svg>