<?xml version="1.0" encoding="UTF-8"?>
<!DOCTYPE svg PUBLIC "-//W3C//DTD SVG 1.1//EN" "http://www.w3.org/Graphics/SVG/1.1/DTD/svg11.dtd">
<!-- Creator: CorelDRAW -->
<svg xmlns="http://www.w3.org/2000/svg" xml:space="preserve" width="385px" height="385px" version="1.1" style="shape-rendering:geometricPrecision; text-rendering:geometricPrecision; image-rendering:optimizeQuality; fill-rule:evenodd; clip-rule:evenodd"
viewBox="0 0 374.43 374.43"
 xmlns:xlink="http://www.w3.org/1999/xlink"
 xmlns:xodm="http://www.corel.com/coreldraw/odm/2003">
 <defs>
  <style type="text/css">
   <![CDATA[
    .fil0 {fill:#D92D27}
    .fil1 {fill:white}
    .fil2 {fill:black;fill-rule:nonzero}
   ]]>
  </style>
 </defs>
 <g id="Camada_x0020_1">
  <metadata id="CorelCorpID_0Corel-Layer"/>
  <path class="fil0" d="M360.25 115.76c9.35,22.63 14.18,46.95 14.18,71.45 0,103.38 -83.84,187.22 -187.22,187.22 -103.37,0 -187.21,-83.84 -187.21,-187.22 0,-103.37 83.84,-187.21 187.21,-187.21 49.67,0 97.37,19.77 132.45,54.9 17.41,17.41 31.23,38.12 40.59,60.87l0 -0.01zm-172.76 -78.87c82.93,0 150.19,67.26 150.19,150.19 0,82.93 -67.26,150.18 -150.19,150.18 -82.93,0 -150.18,-67.25 -150.18,-150.18 0,-82.93 67.25,-150.19 150.18,-150.19z"/>
  <path class="fil1" d="M187.49 37.03c82.93,0 150.19,67.25 150.19,150.18 0,82.93 -67.26,150.19 -150.19,150.19 -82.93,0 -150.18,-67.26 -150.18,-150.19 0,-82.93 67.25,-150.18 150.18,-150.18z"/>
  <path class="fil2" d="M143.39 240.65l-76.43 0 0 -24.71 27.01 0 0 -51.71c-0.48,0.48 -1.65,1.27 -3.52,2.37 -1.87,1.1 -4.52,2.3 -7.97,3.59 -3.45,1.29 -6.75,2.08 -9.91,2.37l0 -25c9.77,-2.58 18.48,-7.18 26.14,-13.79l23.99 0 0 82.17 20.69 0 0 24.71z"/>
  <path id="_1" class="fil2" d="M225.49 240.65l-76.42 0 0 -24.71 27 0 0 -51.71c-0.48,0.48 -1.65,1.27 -3.52,2.37 -1.86,1.1 -4.52,2.3 -7.97,3.59 -3.45,1.29 -6.75,2.08 -9.91,2.37l0 -25c9.77,-2.58 18.48,-7.18 26.14,-13.79l23.99 0 0 82.17 20.69 0 0 24.71z"/>
  <path id="_2" class="fil2" d="M308.02 164.66l0 45.11c0,10.05 -3.54,17.98 -10.63,23.77 -7.09,5.8 -16.42,8.69 -28.01,8.69 -11.59,0 -20.93,-2.92 -28.01,-8.76 -7.09,-5.84 -10.63,-13.74 -10.63,-23.7l0 -45.11c0,-9.96 3.54,-17.86 10.63,-23.7 7.08,-5.85 16.42,-8.77 28.01,-8.77 11.59,0 20.92,2.9 28.01,8.69 7.09,5.8 10.63,13.72 10.63,23.78zm-27.87 43.24l0 -41.37c0,-3.64 -0.93,-6.44 -2.8,-8.41 -1.87,-1.96 -4.52,-2.94 -7.97,-2.94 -3.45,0 -6.13,0.98 -8.05,2.94 -1.91,1.97 -2.87,4.77 -2.87,8.41l0 41.37c0,3.54 0.96,6.3 2.87,8.26 1.92,1.96 4.6,2.94 8.05,2.94 3.45,0 6.1,-0.95 7.97,-2.87 1.87,-1.91 2.8,-4.69 2.8,-8.33z"/>
 </g>
</svg>
