<svg xmlns="http://www.w3.org/2000/svg" shape-rendering="geometricPrecision" text-rendering="geometricPrecision" image-rendering="optimizeQuality" fill-rule="evenodd" clip-rule="evenodd" viewBox="0 0 512 512"><path fill="#D92D27" d="M512 256c0 141.33-114.67 256-256 256C114.66 512 0 397.33 0 256 0 114.66 114.66 0 256 0c141.33 0 256 114.67 256 256z"/><path fill="#fff" d="M256 50.33c113.59 0 205.67 92.09 205.67 205.67 0 113.58-92.08 205.66-205.67 205.66-113.58 0-205.66-92.08-205.66-205.66S142.42 50.33 256 50.33z"/><path fill-rule="nonzero" d="M133.6 323.97V220.6h-21.59v-22.69l25.62-10.98h31.47v137.04h-35.5zm85.9 1.09c-8.29 0-15.21-1.46-20.76-4.39-5.55-2.92-9.67-7.16-12.35-12.71-2.69-5.55-4.03-12.17-4.03-19.85v-62.39c0-8.42 1.44-15.49 4.3-21.22 2.87-5.74 7.11-10.1 12.72-13.09 5.61-2.98 12.38-4.48 20.3-4.48h29.64c7.69 0 14.18 1.5 19.49 4.48 5.3 2.99 9.33 7.35 12.07 13.09 2.75 5.73 4.12 12.8 4.12 21.22v62.39c0 11.46-3.08 20.49-9.24 27.08-6.16 6.58-15.03 9.87-26.62 9.87H219.5zm8.78-31.83h10.98c3.29 0 5.83-.82 7.59-2.47 1.77-1.65 2.66-4.36 2.66-8.14v-53.24c0-4.27-.86-7.11-2.56-8.51-1.71-1.4-3.79-2.1-6.23-2.1H227c-3.17 0-5.49.85-6.95 2.56s-2.19 4.39-2.19 8.05v53.06c0 3.9.85 6.67 2.56 8.32 1.7 1.65 4.33 2.47 7.86 2.47zm106.21 31.83c-8.29 0-15.21-1.46-20.76-4.39-5.55-2.92-9.67-7.16-12.35-12.71-2.69-5.55-4.03-12.17-4.03-19.85v-62.39c0-8.42 1.43-15.49 4.3-21.22 2.87-5.74 7.11-10.1 12.72-13.09 5.61-2.98 12.38-4.48 20.3-4.48h29.64c7.69 0 14.18 1.5 19.49 4.48 5.3 2.99 9.33 7.35 12.07 13.09 2.75 5.73 4.12 12.8 4.12 21.22v62.39c0 11.46-3.08 20.49-9.24 27.08-6.16 6.58-15.03 9.87-26.62 9.87h-29.64zm8.78-31.83h10.98c3.29 0 5.82-.82 7.59-2.47 1.77-1.65 2.66-4.36 2.66-8.14v-53.24c0-4.27-.86-7.11-2.57-8.51-1.7-1.4-3.78-2.1-6.22-2.1h-13.72c-3.17 0-5.49.85-6.95 2.56s-2.2 4.39-2.2 8.05v53.06c0 3.9.86 6.67 2.57 8.32 1.7 1.65 4.33 2.47 7.86 2.47z"/></svg>