<svg width="64" height="64" viewBox="0 0 64 64" fill="none" xmlns="http://www.w3.org/2000/svg">
  <defs>
    <linearGradient id="gBody" x1="32" y1="10" x2="32" y2="54" gradientUnits="userSpaceOnUse">
      <stop offset="0" stop-color="#FFFFFF"/>
      <stop offset="1" stop-color="#DCE4EE"/>
    </linearGradient>
    <linearGradient id="gCabin" x1="32" y1="15" x2="32" y2="39" gradientUnits="userSpaceOnUse">
      <stop offset="0" stop-color="#9DCCFF"/>
      <stop offset="1" stop-color="#EAF4FF"/>
    </linearGradient>
  </defs>

  <ellipse cx="32" cy="53.4" rx="12.2" ry="3.4" fill="#000000" fill-opacity="0.22"/>

  <path
    d="M19.5 16C19.5 12.4101 22.4101 9.5 26 9.5H38C41.5899 9.5 44.5 12.4101 44.5 16V48C44.5 51.5899 41.5899 54.5 38 54.5H26C22.4101 54.5 19.5 51.5899 19.5 48V16Z"
    fill="url(#gBody)"
    stroke="#0B0F14"
    stroke-width="1.6"
  />

  <path
    d="M25 18.5C25 16.567 26.567 15 28.5 15H35.5C37.433 15 39 16.567 39 18.5V35.5C39 37.433 37.433 39 35.5 39H28.5C26.567 39 25 37.433 25 35.5V18.5Z"
    fill="url(#gCabin)"
    stroke="#0B0F14"
    stroke-width="1.2"
  />

  <path d="M26.8 18.6C27.2 17.6 28.2 17 29.3 17H34.7C35.8 17 36.8 17.6 37.2 18.6L38 20.6H26L26.8 18.6Z" fill="#FFFFFF" fill-opacity="0.55"/>
  <path d="M24.6 14.8H39.4" stroke="#FFFFFF" stroke-opacity="0.35" stroke-width="1.2" stroke-linecap="round"/>

  <rect x="22.8" y="15.4" width="5.5" height="3.9" rx="1.2" fill="#EAF2FF" stroke="#0B0F14" stroke-width="0.9"/>
  <rect x="35.7" y="15.4" width="5.5" height="3.9" rx="1.2" fill="#EAF2FF" stroke="#0B0F14" stroke-width="0.9"/>

  <rect x="22.8" y="45.7" width="5.5" height="3.9" rx="1.2" fill="#FF4B4B" stroke="#0B0F14" stroke-width="0.9"/>
  <rect x="35.7" y="45.7" width="5.5" height="3.9" rx="1.2" fill="#FF4B4B" stroke="#0B0F14" stroke-width="0.9"/>

  <rect x="12.2" y="13.3" width="2.9" height="6" rx="1.4" fill="#111827"/>
  <rect x="28.9" y="13.3" width="2.9" height="6" rx="1.4" fill="#111827"/>
  <rect x="12.2" y="22.3" width="2.9" height="6" rx="1.4" fill="#111827"/>
  <rect x="28.9" y="22.3" width="2.9" height="6" rx="1.4" fill="#111827"/>
</svg>
