<svg width="40" height="40" viewBox="0 0 40 40" xmlns="http://www.w3.org/2000/svg">
  <defs>
    <linearGradient id="body" x1="20" y1="4" x2="20" y2="36" gradientUnits="userSpaceOnUse">
      <stop offset="0" stop-color="#f8fafc"/>
      <stop offset="1" stop-color="#d7dee6"/>
    </linearGradient>
    <linearGradient id="glass" x1="20" y1="10" x2="20" y2="24" gradientUnits="userSpaceOnUse">
      <stop offset="0" stop-color="#a7bfd3"/>
      <stop offset="1" stop-color="#6f8597"/>
    </linearGradient>
  </defs>

  <ellipse cx="20" cy="30.8" rx="9.5" ry="4.5" fill="#0f172a" opacity="0.24"/>

  <path
    d="M14.4 6.8h11.2c2.2 0 4 1.8 4 4v17.6c0 2.7-2.2 4.8-4.8 4.8H15.2c-2.7 0-4.8-2.2-4.8-4.8V10.8c0-2.2 1.8-4 4-4z"
    fill="url(#body)"
    stroke="#1f2937"
    stroke-width="1.8"
    stroke-linejoin="round"
  />

  <path
    d="M16 9.8h8c2.5 0 4.5 2 4.5 4.5v1.8H11.5v-1.8c0-2.5 2-4.5 4.5-4.5z"
    fill="url(#glass)"
    stroke="#243241"
    stroke-width="1.3"
    stroke-linejoin="round"
  />

  <rect x="12.3" y="18.3" width="15.4" height="8.6" rx="2.8" fill="#edf2f7" stroke="#1f2937" stroke-width="1.1"/>
  <rect x="17.8" y="5.1" width="4.4" height="3.2" rx="1.2" fill="#fef08a" stroke="#8a6c11" stroke-width="0.8"/>

  <rect x="8.8" y="12.3" width="2.8" height="6" rx="1.4" fill="#111827"/>
  <rect x="28.4" y="12.3" width="2.8" height="6" rx="1.4" fill="#111827"/>
  <rect x="8.8" y="22" width="2.8" height="6" rx="1.4" fill="#111827"/>
  <rect x="28.4" y="22" width="2.8" height="6" rx="1.4" fill="#111827"/>
</svg>
